{"accessors" : [{"bufferView" : 0, "byteOffset" : 0, "componentType" : 5123, "count" : 1344, "type" : "SCALAR", "max" : [1118], "min" : [0]}, {"bufferView" : 1, "byteOffset" : 0, "componentType" : 5126, "count" : 1119, "type" : "VEC3", "max" : [0.21011103689670563, 0.009999999776482582, -0.21275494992733002], "min" : [0.15974104404449463, 0, -0.22742772102355957], "name" : "POSITION"}, {"bufferView" : 1, "byteOffset" : 12, "componentType" : 5126, "count" : 1119, "type" : "VEC3", "max" : [0.9996541142463684, 1.0000044107437134, 0.596519410610199], "min" : [-0.7857301831245422, -1.0000044107437134, -1.0000044107437134], "name" : "NORMAL"}, {"bufferView" : 1, "byteOffset" : 24, "componentType" : 5126, "count" : 1119, "type" : "VEC2", "max" : [1, 1], "min" : [0, 1], "name" : "TEXCOORD_0"}, {"bufferView" : 0, "byteOffset" : 2688, "componentType" : 5123, "count" : 1944, "type" : "SCALAR", "max" : [1746], "min" : [0]}, {"bufferView" : 2, "byteOffset" : 0, "componentType" : 5126, "count" : 1747, "type" : "VEC3", "max" : [0.2531585097312927, 0.009522675536572933, -0.07054433226585388], "min" : [0.153532013297081, 0.001372828148305416, -0.2215021699666977], "name" : "POSITION"}, {"bufferView" : 2, "byteOffset" : 12, "componentType" : 5126, "count" : 1747, "type" : "VEC3", "max" : [0.9999707937240601, 1.0000044107437134, 1.0000044107437134], "min" : [-1.0000044107437134, -1.0000044107437134, -1.0000044107437134], "name" : "NORMAL"}, {"bufferView" : 2, "byteOffset" : 24, "componentType" : 5126, "count" : 1747, "type" : "VEC2", "max" : [1, 1], "min" : [0, 1], "name" : "TEXCOORD_0"}, {"bufferView" : 0, "byteOffset" : 6576, "componentType" : 5123, "count" : 768, "type" : "SCALAR", "max" : [691], "min" : [0]}, {"bufferView" : 3, "byteOffset" : 0, "componentType" : 5126, "count" : 692, "type" : "VEC3", "max" : [0.22253865003585815, 0.010428214445710182, -0.07155978679656982], "min" : [0.15974102914333344, 0.000529041513800621, -0.17042969167232513], "name" : "POSITION"}, {"bufferView" : 3, "byteOffset" : 12, "componentType" : 5126, "count" : 692, "type" : "VEC3", "max" : [1.0000044107437134, 1.0000044107437134, 1.0000044107437134], "min" : [-1.0000044107437134, -1.0000044107437134, -1.0000042915344238], "name" : "NORMAL"}, {"bufferView" : 3, "byteOffset" : 24, "componentType" : 5126, "count" : 692, "type" : "VEC2", "max" : [1, 1], "min" : [0, 1], "name" : "TEXCOORD_0"}, {"bufferView" : 0, "byteOffset" : 8112, "componentType" : 5123, "count" : 1368, "type" : "SCALAR", "max" : [1233], "min" : [0]}, {"bufferView" : 4, "byteOffset" : 0, "componentType" : 5126, "count" : 1234, "type" : "VEC3", "max" : [0.26162534952163696, 0.010428214445710182, -0.06246873363852501], "min" : [0.15974102914333344, -0.0003919675946235657, -0.22940286993980408], "name" : "POSITION"}, {"bufferView" : 4, "byteOffset" : 12, "componentType" : 5126, "count" : 1234, "type" : "VEC3", "max" : [1.0000044107437134, 1.0000044107437134, 1.0000044107437134], "min" : [-1.0000044107437134, -1.0000044107437134, -1.0000044107437134], "name" : "NORMAL"}, {"bufferView" : 4, "byteOffset" : 24, "componentType" : 5126, "count" : 1234, "type" : "VEC2", "max" : [1, 1], "min" : [0, 1], "name" : "TEXCOORD_0"}], "asset" : {"generator" : "Aspose.3D 22.10", "version" : "2.0"}, "buffers" : [{"uri" : "data:application/octet-stream;base64,", "byteLength" : 184436}], "bufferViews" : [{"buffer" : 0, "byteOffset" : 0, "byteLength" : 10848, "target" : 34963}, {"buffer" : 0, "byteOffset" : 10852, "byteLength" : 43008, "byteStride" : 32, "target" : 34962}, {"buffer" : 0, "byteOffset" : 53864, "byteLength" : 62208, "byteStride" : 32, "target" : 34962}, {"buffer" : 0, "byteOffset" : 116076, "byteLength" : 24576, "byteStride" : 32, "target" : 34962}, {"buffer" : 0, "byteOffset" : 140656, "byteLength" : 43776, "byteStride" : 32, "target" : 34962}], "materials" : [{"name" : "Material.004", "pbrMetallicRoughness" : {"baseColorFactor" : [0.8000000715255737, 0.013934355229139328, 0, 1], "metallicFactor" : 1, "roughnessFactor" : 0.5}, "emissiveFactor" : [0, 0, 0], "alphaMode" : "OPAQUE", "doubleSided" : true}, {"name" : "Material.005", "pbrMetallicRoughness" : {"baseColorFactor" : [0.19776108860969543, 0, 0.8000000715255737, 1], "metallicFactor" : 1, "roughnessFactor" : 0.5}, "emissiveFactor" : [0, 0, 0], "alphaMode" : "OPAQUE", "doubleSided" : true}, {"name" : "Material.003", "pbrMetallicRoughness" : {"baseColorFactor" : [0.09958290308713913, 0, 1, 1], "metallicFactor" : 1, "roughnessFactor" : 0.5}, "emissiveFactor" : [0, 0, 0], "alphaMode" : "OPAQUE", "doubleSided" : true}, {"name" : "Material.002", "pbrMetallicRoughness" : {"baseColorFactor" : [0, 0.6151824593544006, 0.0017704777419567108, 1], "metallicFactor" : 1, "roughnessFactor" : 0.5}, "emissiveFactor" : [0, 0, 0], "alphaMode" : "OPAQUE", "doubleSided" : true}], "meshes" : [{"primitives" : [{"attributes" : {"POSITION" : 1, "NORMAL" : 2, "TEXCOORD_0" : 3}, "indices" : 0, "material" : 0, "mode" : 4}, {"attributes" : {"POSITION" : 5, "NORMAL" : 6, "TEXCOORD_0" : 7}, "indices" : 4, "material" : 1, "mode" : 4}, {"attributes" : {"POSITION" : 9, "NORMAL" : 10, "TEXCOORD_0" : 11}, "indices" : 8, "material" : 2, "mode" : 4}, {"attributes" : {"POSITION" : 13, "NORMAL" : 14, "TEXCOORD_0" : 15}, "indices" : 12, "material" : 3, "mode" : 4}]}], "nodes" : [{"matrix" : [7.045482779818003, -9.68332701452732E-10, 0.4637819758151538, 0, -0.5121614037979217, -5.64814756638481E-07, 7.780432393001488, 0, 3.814668851135597E-08, -7.060730850139802, -5.102392808413779E-07, 0, -1.7702633142471313, -0.9779112339019775, 0.5119815468788147, 1], "mesh" : 0, "name" : "Path-12-Copy-2"}], "scene" : 0, "scenes" : [{"nodes" : [0]}]}