<?xml version="1.0" encoding="UTF-8"?>
<svg width="524px" height="203px" viewBox="0 0 524 203" version="1.1" xmlns="http://www.w3.org/2000/svg" xmlns:xlink="http://www.w3.org/1999/xlink">
    <title>detroit-skyline</title>
    <defs>
        <linearGradient x1="86.0527806%" y1="45.997925%" x2="17.6973526%" y2="50.7577811%" id="linearGradient-1">
            <stop stop-color="#211E1E" offset="0%"></stop>
            <stop stop-color="#6900FF" offset="14.0123732%"></stop>
            <stop stop-color="#211E1E" offset="96.208701%"></stop>
            <stop stop-color="#292929" offset="100%"></stop>
        </linearGradient>
        <polyline id="path-2" points="0 203 11.2680831 203 30.4313618 203 36.934677 197.43888 36.934677 188.93888 43.9337506 188.93888 43.9337506 184.893205 56.388065 186.826182 56.388065 188.93888 61.1211722 197.43888 65.3706946 197.43888 65.3706946 182.5055 67.823338 182.5055 67.823338 176.222754 72.0597135 176.222754 72.0597135 165.213284 74.3553558 165.213284 74.3553558 161.265171 82.3977793 156.257803 86.517137 156.257803 94.634102 161.265171 96.1535988 165.213284 98.9522908 166.149285 98.9522908 182.5055 99.8600092 183.127711 99.8600092 192.146071 102.10384 192.146071 102.10384 190.848691 110.698457 190.848691 110.698457 176.751961 112.874144 175.000732 113.898161 176.751961 115.51562 176.751961 117.309898 173.801939 122.917519 172.970524 122.917519 163.910737 130.044958 163.910737 130.044958 154.668273 131.39763 155.148395 138.228221 155.653829 138.228221 153.195467 140.910642 153.195467 140.910642 149.822484 142.538564 149.822484 144.292191 140.541965 146.663564 149.822484 148.386633 150.387012 148.386633 153.195467 151.622878 153.705433 153.209489 154.668273 155.26193 154.668273 155.26193 142.485058 156.04324 154.668273 158.672069 154.668273 159.770368 158.172153 161.720878 160.294322 161.720878 185.586663 167.024287 186.826182 170.270911 186.826182 171.033454 181.867 171.598715 178.535239 177.288302 177.901931 180.734102 181.317434 180.734102 175.000732 185.852683 175.000732 185.852683 150.387012 188.595534 132.574581 189.788703 135.439957 194.207847 135.439957 195.611513 130.584989 197.36835 134.126488 199.721789 135.439957 208.484769 135.439957 209.988603 131.608976 213.77162 151.335599 213.77162 178.535239 215.839343 179.347961 216.28476 177.901931 223.049765 177.901931 223.957599 176.222754 227.631101 176.222754 234.866001 176.751961 235.952917 177.901931 235.952917 179.347961 239.358 179.347961 239.358 190.848691 244.35092 190.848691 244.35092 188.93888 249.373524 188.93888 250.504527 190.248206 250.504527 190.848691 251.704355 190.848691 252.407026 193.858486 259.595978 193.858486 259.595978 167.349374 260.382746 167.349374 260.382746 166.149285 266.97462 166.149285 268.173559 147.817396 268.173559 166.149285 270.680445 166.78384 270.680445 165.213284 273.816076 165.213284 274.567922 166.78384 275.046118 166.78384 275.046118 114.446317 284.398623 111.83354 284.398623 106.741624 292.593529 107.524181 292.593529 112.242532 307.955933 113.5839 309.443548 115.467317 309.443548 123.292974 316.289945 123.292974 316.289945 74.2139363 324.932668 71.1320563 324.932668 68 328.956169 68 330.193566 71.1320563 343.076549 75.1158748 343.076549 112.242532 353.540702 109.392039 353.540702 104.617084 361.848464 104.617084 361.848464 109.392039 376.157223 110.945966 376.157223 121.56731 379.250453 122.004928 379.250453 199.045032 385.621973 200.717521 408.734111 200.717521 408.734111 165.213284 419.317545 163.910737 419.317545 158.172153 429.584915 158.172153 430.98619 163.910737 439.905534 163.910737 439.905534 200.717521 449.39683 200.717521 449.39683 163.910737 459.530923 161.265171 459.530923 156.257803 470.878637 156.257803 470.878637 161.265171 482.594446 162.813035 482.594446 202.640506 483.603299 202.640506 485.575267 181.317434 488.215145 179.347961 494.309182 179.347961 496.053271 176.751961 497.571903 176.222754 506.923309 175.000732 518.044827 175.000732 518.044827 202.640506 524.049202 202.640506"></polyline>
        <filter x="-7.2%" y="-118.4%" width="3378.6%" height="260.6%" filterUnits="objectBoundingBox" id="filter-3">
            <feMorphology radius="3" operator="dilate" in="SourceAlpha" result="shadowSpreadOuter1"></feMorphology>
            <feOffset dx="0" dy="2" in="shadowSpreadOuter1" result="shadowOffsetOuter1"></feOffset>
            <feGaussianBlur stdDeviation="15" in="shadowOffsetOuter1" result="shadowBlurOuter1"></feGaussianBlur>
            <feColorMatrix values="0 0 0 0 0   0 0 0 0 0   0 0 0 0 0  0 0 0 0.5 0" type="matrix" in="shadowBlurOuter1"></feColorMatrix>
        </filter>
    </defs>
    <g id="detroit-skyline" stroke="none" stroke-width="1" fill="none" fill-rule="evenodd">
        <g id="Path-8">
            <use fill="black" fill-opacity="1" filter="url(#filter-3)" xlink:href="#path-2"></use>
            <use fill="url(#linearGradient-1)" fill-rule="evenodd" xlink:href="#path-2"></use>
        </g>
    </g>
</svg>