<?xml version="1.0" encoding="UTF-8"?>
<svg width="103.7px" height="15.6px" viewBox="0 0 1037 156" version="1.1" xmlns="http://www.w3.org/2000/svg" xmlns:xlink="http://www.w3.org/1999/xlink">
    <title>F-Top</title>
    <defs>
        <linearGradient x1="130.202628%" y1="43.514988%" x2="-53.7554567%" y2="57.1928459%" id="linearGradient-1">
            <stop stop-color="#000100" offset="0%"></stop>
            <stop stop-color="#00FF13" offset="42.7556013%"></stop>
            <stop stop-color="#000901" offset="100%"></stop>
        </linearGradient>
        <linearGradient x1="103.741659%" y1="36.5778854%" x2="14.9545579%" y2="52.89562%" id="linearGradient-2">
            <stop stop-color="#060303" offset="0%"></stop>
            <stop stop-color="#FF0000" offset="100%"></stop>
        </linearGradient>
    </defs>
    <g id="F-Top" stroke="none" stroke-width="1" fill="none" fill-rule="evenodd">
        <g id="Group" transform="translate(30.000000, -1.000000)" fill-rule="nonzero">
            <path d="M514.565314,19.9123306 C647.113327,20.8710519 746.524337,21.5900929 812.798344,22.0694535 C834.101863,22.2235422 866.057143,22.4546751 908.664183,22.7628523 L977.891892,0 L845.734003,149.725424 L422.756757,158 L507.914889,23.520507 C509.347174,21.2586796 511.864706,19.8927971 514.565314,19.9123306 Z" id="Green-Bar" fill="url(#linearGradient-1)"></path>
            <path d="M375.979083,17.0810811 L465.387949,17.0810811 C469.69681,17.0810811 473.189833,20.5906082 473.189833,24.9198293 C473.189833,26.6134882 472.643868,28.2615934 471.633665,29.6174343 L375.979083,158 L375.979083,158 L683.243243,158 L264.756757,158" id="Red-Bar-3" fill="url(#linearGradient-2)"></path>
            <path d="M243.600704,17.0810811 L333.009571,17.0810811 C337.318432,17.0810811 340.811454,20.5906082 340.811454,24.9198293 C340.811454,26.6134882 340.265489,28.2615934 339.255287,29.6174343 L243.600704,158 L243.600704,158 L550.864865,158 L132.378378,158" id="Red-Bar-2" fill="url(#linearGradient-2)"></path>
            <path d="M111.222326,17.0810811 L200.631193,17.0810811 C204.940053,17.0810811 208.433076,20.5906082 208.433076,24.9198293 C208.433076,26.6134882 207.887111,28.2615934 206.876908,29.6174343 L111.222326,158 L111.222326,158 L418.486486,158 L0,158" id="Red-Bar-1" fill="url(#linearGradient-2)"></path>
        </g>
    </g>
</svg>