<?xml version="1.0" encoding="UTF-8"?>
<svg width="538px" height="539px" viewBox="0 0 538 539" version="1.1" xmlns="http://www.w3.org/2000/svg" xmlns:xlink="http://www.w3.org/1999/xlink">
    <title>cont-ill</title>
    <defs>
        <linearGradient x1="64.5337537%" y1="11.168349%" x2="-57.9916279%" y2="57.9159647%" id="linearGradient-1">
            <stop stop-color="#211E1E" offset="0%"></stop>
            <stop stop-color="#6900FF" offset="42.0519529%"></stop>
            <stop stop-color="#292929" offset="100%"></stop>
        </linearGradient>
        <linearGradient x1="50%" y1="0%" x2="50%" y2="100%" id="linearGradient-2">
            <stop stop-color="#FF0000" offset="0%"></stop>
            <stop stop-color="#7B0202" offset="100%"></stop>
        </linearGradient>
    </defs>
    <g id="cont-ill" stroke="none" stroke-width="1" fill="none" fill-rule="evenodd">
        <g id="Group" transform="translate(75.000000, 26.000000)">
            <path d="M33.282803,139.593582 C43.6416385,124.30714 68.0584798,99.6518864 106.533327,65.6278218 L193.066653,65.6278218 L279.59998,65.6278218 C327.042674,103.119947 352.902323,129.245449 357.178927,144.004327 C361.45553,158.763205 363.593831,207.212643 363.593831,289.352641 L363.593831,419.651308 C362.120492,426.349188 358.984707,433.047068 354.186477,439.744948 C346.989132,449.791768 318.155279,486.595598 193.661725,486.595598 C28.9422618,486.595598 23.7296182,419.651308 23.7296182,419.651308 C23.7296182,419.651308 17.7445496,162.523245 33.282803,139.593582 Z" id="Rectangle" fill-opacity="0.2" fill="url(#linearGradient-1)"></path>
            <g id="potrace6_06_18-PM" fill="url(#linearGradient-2)">
                <path d="M80.7451958,307.436372 C91.3566899,307.370643 103.922132,320.718961 107.998838,336.388951 C109.453246,341.97886 110.011927,352.13065 109.167303,357.615002 C108.22966,363.704585 106.848174,369.497002 106.023645,370.79466 C105.617123,371.433736 104.713358,373.505858 104.01515,375.398992 C102.979322,378.205994 102.018712,379.498488 98.8101721,382.403589 C94.9195015,385.925966 94.0369807,386.441702 87.8392389,388.81443 C84.3028398,390.168308 79.9241128,390.402369 78.5632967,389.310661 C78.0712211,388.916545 77.0583605,387.475468 76.3113472,386.108396 C75.0504392,383.800493 75.0246009,383.584216 75.9473145,383.068481 C76.8249835,382.577442 76.9315692,380.417715 76.9400336,353.677647 L76.9401406,345.800246 C76.9316165,319.197151 76.8090039,315.781942 76.0058813,314.557669 C74.8569392,312.80566 75.2720742,309.371629 76.7706944,308.235748 C77.3379881,307.806064 79.1265712,307.446368 80.7451958,307.436372 Z M272.774711,320.470559 C275.565819,319.050708 279.140114,319.199291 282.445117,320.872707 C285.348766,322.342467 286.953036,324.42721 288.241504,328.403939 C288.642285,329.640787 289.458774,331.623989 290.0565,332.812074 C292.739662,338.143829 292.651812,352.917161 289.87678,363.064935 C286.473018,375.514301 284.51218,379.225418 280.169052,381.439238 C275.138052,384.003574 270.955122,382.482183 267.847064,376.958246 C264.104533,370.304739 263.296656,365.566167 263.278856,350.1572 C263.278081,349.503495 263.277382,348.882068 263.276957,348.290752 L263.2767,346.604971 C263.281021,339.405952 263.371283,337.299771 264.033985,334.955164 L264.109999,334.6934 C264.319117,333.991302 264.580072,333.250937 264.905519,332.333627 C266.914015,326.672008 270.138632,321.811242 272.774711,320.470559 Z M128.043027,319.824599 C133.310591,317.483422 139.177602,321.059152 142.513037,328.64431 C145.438504,335.296669 147.101915,347.52517 145.947231,353.886101 C143.648199,366.546007 140.719286,375.483896 137.709414,379.022336 C136.118924,380.891376 132.341942,382.547008 129.633516,382.561422 C127.28051,382.573971 123.63272,380.926944 122.631343,379.399816 C122.143286,378.655757 121.375028,377.064376 120.92372,375.862523 C120.471837,374.661243 119.442325,371.945456 118.635596,369.828014 C116.501929,364.228352 115.567731,352.61598 116.527193,343.627034 C117.433829,335.135466 118.985274,329.807727 121.717242,325.799445 C124.285567,322.031534 125.359291,321.017847 128.043027,319.824599 Z M225.584252,318.640529 C228.77327,317.659541 242.690341,317.459328 245.894288,318.348527 C248.542999,319.083408 248.683099,320.324271 246.18138,320.89508 L246.18138,320.89508 L244.315282,321.320748 L246.037834,321.80149 C246.985237,322.065955 248.98512,322.628732 250.482592,323.050958 C253.793911,323.986052 256.948478,326.858453 258.514852,330.365341 C258.526922,330.392368 258.538866,330.419248 258.550685,330.445999 L258.620095,330.605136 C258.642735,330.65778 258.664881,330.710075 258.686543,330.762186 L258.750085,330.918126 C258.801841,331.047886 258.850627,331.17751 258.896588,331.309547 L258.950393,331.469312 C259.413854,332.89369 259.566268,334.703765 259.579095,339.935447 L259.579142,341.510017 C259.575298,343.403846 259.558757,345.679167 259.535177,348.436169 C259.462255,356.955274 259.237749,367.797771 259.036211,372.530606 L259.036211,372.530606 L258.669881,381.135763 L252.353858,381.135763 L252.565157,357.269075 L252.775883,333.402961 L251.560335,333.085144 C250.521636,332.813795 250.344214,332.339364 250.344214,329.831248 C250.344214,327.207249 250.187461,326.835506 248.871432,326.33526 C248.061258,326.027769 245.881082,325.775925 244.027042,325.775925 L244.027042,325.775925 L240.655433,325.775925 L240.883384,327.640375 C242.244774,338.774874 243.023942,352.948139 243.098586,367.94119 L243.098586,367.94119 L243.166914,381.70944 L239.021306,381.877527 C238.180454,381.911702 237.508949,381.935735 236.970326,381.940148 L236.630531,381.94008 C234.972498,381.923636 234.794874,381.649436 234.607553,380.730173 C234.460562,380.006766 234.194141,367.431765 234.014996,352.785215 C233.836424,338.139239 233.540145,326.005969 233.356407,325.822392 C233.172668,325.639389 231.558062,325.591201 229.768905,325.716262 C227.979748,325.841324 225.482047,325.970401 224.218843,326.003101 L224.218843,326.003101 L221.922107,326.062763 L221.743536,323.582183 C221.524197,320.535384 222.183361,319.686916 225.584252,318.640529 Z M317.093101,320.032843 C319.336438,318.666345 319.251458,318.672081 320.824723,319.773541 C322.338272,320.832549 322.953797,323.066448 323.820815,330.65218 C324.852623,339.673252 325.314841,349.499766 325.489393,366.100834 L325.489393,366.100834 L325.651313,381.470216 L320.896496,381.303276 L316.142252,381.135763 L315.152933,376.833185 C314.608607,374.466767 313.729531,370.078137 313.198985,367.080674 C312.669013,364.083212 311.168096,358.403808 309.864699,354.459779 L309.864699,354.459779 L309.648073,353.803621 C308.425454,350.095008 307.302562,346.599606 307.095409,345.854622 C306.910539,345.189772 306.778695,350.220361 306.766922,357.580068 L306.766557,359.499314 C306.767478,360.285446 306.7697,361.092715 306.773292,361.917581 L306.773292,361.917581 L306.849659,379.414731 L303.331059,379.410716 C301.395485,379.408995 299.653411,379.248365 299.459337,379.054462 C299.2807,378.875983 299.1439,369.169173 299.1367,356.873308 L299.136869,354.568333 C299.137094,354.257492 299.137402,353.945334 299.137794,353.631962 C299.172245,326.088579 299.271004,325.196511 302.389398,324.326243 C304.733217,323.671677 305.581286,323.91549 307.055217,325.664631 C309.989297,329.146851 312.968737,336.902965 314.37032,344.707268 C314.852061,347.389209 315.735156,351.390606 316.333455,353.599263 L316.333455,353.599263 L317.419812,357.615002 L317.472062,349.815863 C317.504791,344.861587 317.096546,338.897067 316.352404,333.466066 C314.644206,320.994326 314.613774,321.543335 317.093101,320.032843 Z M171.737853,320.350087 C174.225792,319.261821 175.049172,319.412698 176.314099,321.186508 C177.585343,322.968923 177.834539,327.540555 178.356472,358.618937 L178.356472,358.618937 L178.738878,381.422601 L168.901958,381.422601 L167.994748,377.437267 C167.495782,375.245246 167.087537,372.785319 167.087537,371.970698 C167.087537,370.256512 165.948416,364.529699 164.612747,359.008419 L164.400356,358.138961 C163.687858,355.25056 162.934656,352.480593 162.278172,350.444039 L162.278172,350.444039 L160.336282,344.42043 L160.401165,360.770226 C160.477531,380.134122 160.447674,380.275247 156.27393,380.275247 L153.470764,380.275247 L153.101564,376.748854 C152.442975,370.452748 152.670352,327.688564 153.370282,326.15283 C154.367065,323.967694 156.373264,323.318866 158.702154,324.428931 C160.972478,325.510312 162.274727,327.678238 164.681132,334.381081 C164.864345,334.89128 165.034795,335.377805 165.19621,335.856172 L165.33244,336.264566 C165.399536,336.468125 165.465168,336.671001 165.529629,336.874414 L165.657078,337.28232 C166.623555,340.420637 167.36083,343.876794 168.926648,352.054351 C169.247617,353.728914 169.588682,355.019687 169.685145,354.922736 C169.781608,354.825784 170.035972,351.261529 170.250142,347.001976 C170.612453,339.805771 170.143918,333.77413 168.534481,324.915409 C168.156093,322.830093 169.08053,321.511783 171.737853,320.350087 Z M204.042592,320.465396 C205.66581,320.354103 207.249409,320.297308 207.56234,320.340334 C208.901337,320.523337 210.22885,324.224128 210.781215,329.312644 C211.347361,334.534253 212.451516,341.343799 214.812561,354.17294 C215.145588,355.98199 215.424805,357.481113 215.70571,358.94799 L215.811237,359.4971 C216.481447,362.972092 217.200305,366.46098 218.71127,373.683697 C220.214235,380.869894 220.502465,381.403959 217.680112,381.420572 L217.26926,381.420168 C216.981858,381.418499 216.667206,381.414833 216.323813,381.413996 C214.350343,381.408833 212.413046,381.200588 212.018582,380.950465 C211.624691,380.700342 210.931077,377.929481 210.476898,374.792042 C210.023292,371.655175 209.120675,366.119765 208.471847,362.491258 C207.823019,358.86275 207.289602,355.689742 207.286157,355.440766 C207.283286,355.191217 205.150767,355.062139 202.547417,355.153928 L202.547417,355.153928 L197.814418,355.320294 L197.361387,358.18868 C197.111617,359.766291 196.535136,362.993225 196.079809,365.359643 C195.624481,367.726061 195.07958,372.190416 194.869429,375.279667 L194.869429,375.279667 L194.487596,380.897687 L190.69224,380.729599 L186.896884,380.562086 L186.709126,377.980539 C186.606347,376.560688 186.817647,373.850064 187.179383,371.956929 C187.3753,370.931048 187.58479,369.860105 187.801833,368.772184 L187.98958,367.836176 C189.06237,362.515996 190.272792,356.984545 190.931101,354.459779 C192.493811,348.464307 193.333688,345.067381 193.997808,341.990727 L194.113292,341.450649 L194.113292,341.450649 L194.281138,340.646913 C194.33622,340.379407 194.390559,340.111787 194.444533,339.842487 C195.877122,332.693896 198.898478,323.237977 200.25872,321.644302 C200.786395,321.026452 202.174772,320.5939 204.042592,320.465396 Z M85.6219061,317.695492 C85.0651983,317.632747 84.9203496,318.136374 84.9078772,326.292495 L84.9070543,327.148587 C84.9069248,327.442929 84.9069366,327.74634 84.9070787,328.059097 L84.9078851,329.025679 C84.912392,332.8405 84.9326966,337.927765 84.9522418,344.707268 C85.0251632,369.955944 85.3668027,380.26951 86.1568798,381.088721 C87.174908,382.143713 91.5140163,380.231648 93.9175504,377.668458 C96.7293294,374.669848 99.7552789,369.082234 100.539614,365.43881 C100.660855,364.875945 100.808258,364.199702 100.960064,363.508751 L101.142952,362.678866 C101.325169,361.854551 101.501196,361.065891 101.633435,360.483388 C102.443034,356.919706 102.284559,343.742917 101.381368,339.485659 C100.529279,335.471067 95.5028724,324.700854 93.4048042,322.396393 C92.7180801,321.642008 91.0075861,320.286982 89.6037062,319.384588 C88.1998264,318.482768 86.5852211,317.744445 86.0150564,317.744445 C85.8903436,317.744445 85.7790955,317.719313 85.6799511,317.70355 Z M133.57816,328.158405 C132.317252,327.154471 130.506276,326.891727 129.914866,327.627181 C128.145806,329.827232 126.021899,335.323059 125.088276,340.117852 C123.575301,347.890029 123.674635,357.179008 125.348381,364.499127 C126.671875,370.287529 129.039236,375.112153 130.55623,375.112153 C131.974464,375.112153 134.316561,370.847438 135.603881,365.921273 C136.722392,361.639347 136.87857,359.545426 136.909001,348.436169 C136.911609,347.46988 136.913517,346.576006 136.914142,345.747361 L136.914043,344.552418 C136.905312,336.26262 136.711498,335.206509 135.587804,332.247576 C134.841939,330.285026 133.937599,328.445244 133.57816,328.158405 Z M280.30743,328.863455 C279.29457,327.469993 277.677093,327.161928 276.126797,328.067765 C275.622089,328.362061 274.541475,330.09686 273.724985,331.922301 C270.186289,339.835602 269.43296,355.323163 272.028272,366.793836 C272.608197,369.358172 274.693059,373.686566 275.625534,374.261964 C276.858881,375.023807 278.885751,372.855308 280.131156,369.442503 C282.389421,363.254248 283.185815,357.632213 283.269645,347.288815 C283.352328,337.036058 282.530671,331.922301 280.30743,328.863455 Z M203.508027,332.373211 L201.914666,338.683659 C199.279162,349.119992 199.203944,348.149331 202.647899,348.149331 L205.610114,348.149331 L205.266752,346.28488 C205.07842,345.259146 204.605292,341.709805 204.215996,338.39682 L204.215996,338.39682 L203.508027,332.373211 Z M185.380382,12.6196325 C188.016036,12.6226989 191.731465,12.6790089 195.796736,12.7863157 C218.014211,13.3726137 235.215614,14.3375385 247.473294,15.6839586 C261.874402,17.2655863 280.111634,20.8481997 287.289507,23.5054719 C289.766537,24.4227816 292.844163,25.3406649 294.128613,25.5460413 C296.575785,25.9367154 306.646972,30.8433754 308.623887,32.6074324 C309.25549,33.171357 310.845979,34.2974851 312.15799,35.1103855 C313.983895,36.2411031 314.960007,37.4676246 316.314507,40.3319943 L316.314507,40.3319943 L318.084717,44.0752372 L318.13869,62.9761759 C318.146568,65.7450284 318.154468,68.1150536 318.15522,70.1580054 L318.155084,71.0137405 C318.148724,79.6537358 317.982089,82.0801242 317.032401,84.5250275 L316.93803,84.761898 C316.615173,85.5530538 316.208743,86.3670557 315.697834,87.4130985 C314.595401,89.6705178 306.467252,94.7515756 299.436944,97.57923 C291.761826,100.665613 288.182938,101.766499 282.093717,102.915 C279.8188,103.343537 277.493355,103.934998 276.926061,104.228721 C275.75268,104.836353 268.110383,106.205621 259.932666,107.418015 L259.022129,107.552034 L259.022129,107.552034 L258.108994,107.684481 C252.321396,108.517746 246.486307,109.239635 242.671393,109.530071 C238.522914,109.846167 231.381788,110.419844 226.802671,110.805929 C221.528079,111.250368 209.883231,111.475925 197.384576,111.486026 L195.818196,111.486166 C195.033182,111.485676 194.24573,111.484344 193.457188,111.482172 L191.879049,111.476709 C180.038084,111.427333 168.153768,111.18903 160.771513,110.764624 C138.637869,109.492782 116.931993,106.194139 101.343472,101.734373 C99.7644659,101.282316 97.3098294,100.639797 95.888724,100.305917 C93.117138,99.6553673 92.9345475,99.584805 87.2759644,96.9854742 C85.2232567,96.0429228 82.381046,94.7682123 80.9599407,94.1538041 C77.091089,92.4809618 72.3994318,87.9609601 70.814684,84.3800677 C70.7482222,84.2299365 70.6850347,84.0864928 70.6249656,83.9471695 L70.5543697,83.781795 L70.5543697,83.781795 L70.4867076,83.6193903 C70.4094567,83.431267 70.3380736,83.2471942 70.2721309,83.0601271 L70.2169309,82.8988864 C70.1810058,82.7906847 70.1468172,82.680848 70.1142854,82.568062 L70.0667203,82.3965066 C69.6110191,80.6845627 69.5070873,78.1879613 69.4989087,70.6885849 L69.4987367,68.671609 C69.5000002,66.9676907 69.5043272,65.042033 69.5095638,62.8591458 C69.5388472,50.9874724 69.7857463,43.5933485 70.2020297,42.1654662 C70.9519139,39.5890825 75.227862,35.2056159 80.1354125,31.9815507 C84.2126929,29.3030525 91.2246276,26.2648587 97.898368,24.2850991 C98.2263153,24.1877946 98.5611427,24.087878 98.8988368,23.9865911 L99.5768581,23.782558 C101.954986,23.0646223 104.342479,22.3201006 105.36276,21.9749015 C106.440199,21.6108527 109.794233,20.8398829 113.304914,20.1379361 L114.032801,19.9938468 C114.397167,19.9224506 114.761645,19.8521444 115.123887,19.783455 C119.229303,19.0055489 124.784533,17.9459673 127.468843,17.4290843 C127.513015,17.4205824 127.557119,17.4121255 127.601174,17.4037116 L127.865046,17.3537303 C127.952899,17.337232 128.040694,17.3208908 128.128575,17.3046915 L128.392616,17.2565041 C128.657196,17.208712 128.923821,17.1620601 129.196331,17.1161378 L129.470945,17.0704435 C133.393122,16.4261232 138.753079,15.9007799 156.465134,14.3272123 C158.594245,14.1380469 162.035197,13.9111687 165.540565,13.7200151 L166.64821,13.660924 C168.493003,13.5647036 170.319267,13.4805205 171.945134,13.4190815 C176.98532,13.228047 181.248636,12.9239982 181.419169,12.7432899 C181.494319,12.6636558 182.792789,12.6229024 184.883935,12.6197044 Z M180.149295,34.5818897 L176.538461,34.581934 C171.076655,34.5880769 167.233793,34.6240451 166.513353,34.6996327 C159.22581,35.4643443 151.358915,36.1619356 144.40727,36.6593136 C135.526366,37.2949478 131.357791,37.6844746 129.191395,38.0814591 C128.401892,38.2254521 126.851595,38.4881962 125.746291,38.664315 C119.328636,39.6871813 108.893991,42.1069512 105.663058,43.3219992 C100.459228,45.2788117 99.1799466,46.1829268 99.8482967,47.4306745 C100.393197,48.4483776 104.563496,50.1493301 107.659496,50.616877 C108.606899,50.7597226 110.673961,51.1796542 112.252967,51.5491022 C122.170273,53.871347 138.955967,56.2073601 153.602826,57.303657 C192.297659,60.2001526 241.80093,58.5353417 266.995549,53.4904255 C288.703723,49.1436742 293.563042,45.731443 282.43995,42.6462076 C280.802675,42.1922195 276.286462,41.230254 271.859623,40.3561562 L270.945974,40.1767576 C267.759483,39.5546188 264.727202,39.0001037 262.976261,38.7394667 C254.392211,37.4618879 247.126487,36.6145668 240.008902,36.0609685 C239.885142,36.05134 239.761235,36.0416591 239.637255,36.0319325 L238.893081,35.9730753 C234.677757,35.6370316 230.547281,35.2632162 229.386499,35.1098119 C227.497353,34.8597231 198.109666,34.5992234 180.149295,34.5818897 Z M18.4640341,43.8727292 C40.5081053,42.6880861 41.5043145,42.8074109 40.5701172,46.5271331 C40.269819,47.7226761 39.7645371,48.0456563 37.7583383,48.3261844 C35.339818,48.6648762 23.5893052,49.4153245 11.6225428,50.0091429 L9.65495559,50.1052526 C9.16332169,50.1288805 8.67216615,50.1521914 8.18212166,50.1751456 L8.18212166,50.1751456 L0,50.5577882 L0.0413412463,49.1935841 C0.0660311573,48.3806837 0.856682493,47.1880091 1.99758605,46.2420156 C2.20123811,46.073208 2.38325755,45.9223523 2.56345915,45.7865978 L2.67152048,45.7069344 C4.14971025,44.6423447 5.77213713,44.5548313 18.4640341,43.8727292 Z M347.552987,42.8011004 L353.065153,43.1550592 C356.097418,43.3501094 364.77908,43.805609 372.358309,44.1675992 C381.184091,44.5892519 386.290309,45.0567987 386.560749,45.4669778 C386.79272,45.8197892 386.98622,46.9476384 386.991387,47.9727993 L386.991387,47.9727993 L387,49.8372498 L378.624953,49.8372498 C375.401913,49.8372498 371.045478,49.7246277 366.606065,49.5537846 L365.772959,49.5210825 C365.495104,49.5099633 365.217181,49.4986299 364.939447,49.4870956 L363.691784,49.4338804 L363.691784,49.4338804 L362.863988,49.39703 C354.883555,49.0358185 347.601062,48.5336063 347.271062,48.2143174 C347.052298,48.0026305 347.02646,46.6980888 347.21307,45.3149534 L347.21307,45.3149534 L347.552987,42.8011004 Z M13.0150282,2.03101783 C14.053727,0.992662319 17.4953858,1.746474 20.0194985,3.56560402 C21.4830935,4.62002249 23.1476528,5.65034652 23.7183917,5.85514924 C24.2891306,6.05995195 26.3561929,7.35416744 28.3118635,8.73099243 C30.2675341,10.1083911 34.1926558,12.2872166 37.0348665,13.5734007 C41.2212418,15.4676824 43.1292552,15.9874338 47.0830861,16.3109877 C49.7673961,16.530706 52.4161068,16.9449008 52.9684718,17.2311657 C55.656227,18.62348 52.2851929,22.2944396 48.3141365,22.2984611 C43.8889006,22.3036184 34.6112359,18.8116461 29.6847374,15.2864004 C28.6827864,14.5693041 26.846546,13.5234907 25.6045861,12.9630082 C22.645816,11.6269143 12.6320475,4.0291351 12.6320475,3.11985693 C12.6320475,2.73147754 12.8043027,2.24098364 13.0150282,2.03101783 Z M369.443177,1.52159259 C371.338558,-0.152397129 371.927671,-0.327942315 373.120251,0.427590397 C374.304792,1.17796002 373.011156,5.00495981 370.768967,7.38514601 C367.663206,10.6809208 362.183769,14.6450294 359.432279,15.5864335 C358.014619,16.0711907 355.05872,17.2764862 352.862466,18.2655055 C347.476046,20.6904385 340.87695,22.3931121 337.67128,22.1848673 C335.084007,22.0167799 335.032905,21.9754751 334.860076,19.893601 C334.69184,17.8731104 334.78658,17.745754 336.86972,17.191582 C338.072061,16.8720439 340.218361,16.4440808 341.639466,16.2409991 C350.76612,14.9347364 359.489123,10.3172096 369.443177,1.52159259 Z" id="Combined-Shape"></path>
            </g>
        </g>
    </g>
</svg>