<?xml version="1.0" encoding="UTF-8"?>
<svg width="538px" height="539px" viewBox="0 0 538 539" version="1.1" xmlns="http://www.w3.org/2000/svg" xmlns:xlink="http://www.w3.org/1999/xlink">
    <title>Job-ill</title>
    <defs>
        <linearGradient x1="57.0946361%" y1="11.168349%" x2="-2.71599637%" y2="57.9159647%" id="linearGradient-1">
            <stop stop-color="#211E1E" offset="0%"></stop>
            <stop stop-color="#6900FF" offset="42.0519529%"></stop>
            <stop stop-color="#292929" offset="100%"></stop>
        </linearGradient>
        <linearGradient x1="35.2504551%" y1="127.908727%" x2="20.8385443%" y2="-58.824413%" id="linearGradient-2">
            <stop stop-color="#292929" offset="0%"></stop>
            <stop stop-color="#6900FF" offset="57.9480471%"></stop>
            <stop stop-color="#211E1E" offset="100%"></stop>
        </linearGradient>
        <linearGradient x1="72.1499694%" y1="49.9365718%" x2="4.73893722%" y2="49.9183293%" id="linearGradient-3">
            <stop stop-color="#211E1E" offset="0%"></stop>
            <stop stop-color="#B50000" offset="62.1656753%"></stop>
            <stop stop-color="#1F4300" offset="100%"></stop>
        </linearGradient>
        <linearGradient x1="72.1499694%" y1="49.9817105%" x2="4.73893722%" y2="49.9764502%" id="linearGradient-4">
            <stop stop-color="#211E1E" offset="0%"></stop>
            <stop stop-color="#B50000" offset="62.1656753%"></stop>
            <stop stop-color="#1F4300" offset="100%"></stop>
        </linearGradient>
        <linearGradient x1="72.1499694%" y1="49.978468%" x2="4.73893722%" y2="49.9722752%" id="linearGradient-5">
            <stop stop-color="#211E1E" offset="0%"></stop>
            <stop stop-color="#B50000" offset="62.1656753%"></stop>
            <stop stop-color="#1F4300" offset="100%"></stop>
        </linearGradient>
        <linearGradient x1="72.1499694%" y1="49.9817177%" x2="4.73893722%" y2="49.9764595%" id="linearGradient-6">
            <stop stop-color="#211E1E" offset="0%"></stop>
            <stop stop-color="#B50000" offset="62.1656753%"></stop>
            <stop stop-color="#1F4300" offset="100%"></stop>
        </linearGradient>
        <linearGradient x1="72.1499694%" y1="49.9816816%" x2="4.73893722%" y2="49.976413%" id="linearGradient-7">
            <stop stop-color="#211E1E" offset="0%"></stop>
            <stop stop-color="#B50000" offset="62.1656753%"></stop>
            <stop stop-color="#1F4300" offset="100%"></stop>
        </linearGradient>
        <linearGradient x1="72.1499694%" y1="49.9785147%" x2="4.73893722%" y2="49.9723354%" id="linearGradient-8">
            <stop stop-color="#211E1E" offset="0%"></stop>
            <stop stop-color="#B50000" offset="62.1656753%"></stop>
            <stop stop-color="#1F4300" offset="100%"></stop>
        </linearGradient>
        <linearGradient x1="72.1499694%" y1="49.9798912%" x2="4.73893722%" y2="49.9741077%" id="linearGradient-9">
            <stop stop-color="#211E1E" offset="0%"></stop>
            <stop stop-color="#B50000" offset="62.1656753%"></stop>
            <stop stop-color="#1F4300" offset="100%"></stop>
        </linearGradient>
        <linearGradient x1="72.1499694%" y1="49.947043%" x2="4.73893722%" y2="49.9318121%" id="linearGradient-10">
            <stop stop-color="#211E1E" offset="0%"></stop>
            <stop stop-color="#B50000" offset="62.1656753%"></stop>
            <stop stop-color="#1F4300" offset="100%"></stop>
        </linearGradient>
    </defs>
    <g id="Job-ill" stroke="none" stroke-width="1" fill="none" fill-rule="evenodd">
        <g id="ai_image_1686286726659" transform="translate(0.330957, 24.576068)" fill-rule="nonzero">
            <g id="Group" transform="translate(268.611154, 245.258170) scale(-1, 1) rotate(-180.000000) translate(-268.611154, -245.258170) ">
                <path d="M207.421973,490.142308 C206.674121,490.035441 205.018164,489.714842 203.682715,489.394244 C202.347266,489.073645 200.798145,488.699613 200.263965,488.592746 C194.281152,487.417217 170.296484,479.50911 164.153418,476.730586 C162.817969,476.142822 161.162012,475.448191 160.41416,475.234458 C159.238965,474.913859 155.980469,473.417731 142.78623,467.059186 C139.90166,465.669924 136.963672,463.960063 126.76084,457.97555 C121.312207,454.822994 110.041016,447.288919 105.660742,443.976064 C98.1822266,438.258717 92.359668,433.556599 89.7956055,431.258974 C79.7530273,421.908172 75.1056641,417.366354 72.0074219,413.893199 C69.9775391,411.595574 67.5203125,408.923916 66.612207,408.015552 C62.2319336,403.580601 49.8923828,387.497222 44.390332,378.947917 C32.478125,360.566913 23.4504883,342.559941 16.1856445,322.949974 C11.6985352,310.767215 10.0425781,305.370466 7.90585937,296.286831 C7.15800781,293.080841 6.30332031,289.821419 6.03623047,289.073355 C5.76914062,288.325291 5.02128906,284.852136 4.38027344,281.325548 C0.160253906,257.280629 -4.54747351e-13,254.92957 -4.54747351e-13,227.090898 C-4.54747351e-13,205.877937 0.106835937,202.244482 1.17519531,193.428012 C3.31191406,175.527906 5.9828125,162.597083 11.0575195,145.231308 C15.384375,130.590625 23.877832,109.858561 30.2345703,98.3704337 C31.6234375,95.9125087 32.7452148,93.8286158 32.7452148,93.7217494 C32.7452148,93.1339848 39.8498047,81.2183918 40.2237305,81.2183918 C40.6510742,81.2183918 45.1381836,99.2253642 45.8326172,103.660316 C46.0462891,104.996145 47.4351562,110.766925 48.8774414,116.484272 C50.3731445,122.20162 52.2427734,129.682261 53.044043,133.04855 C55.9820312,145.017576 63.1400391,171.092954 66.665625,182.474216 C67.6805664,185.733638 69.6036133,192.092183 70.9390625,196.634001 C72.3279297,201.175819 74.7317383,209.030493 76.2808594,213.999776 C77.8833984,219.022492 80.0201172,225.968802 81.0884766,229.49539 C82.1568359,233.021978 84.0264648,238.899625 85.2016602,242.586512 C86.3768555,246.2734 87.7657227,251.296116 88.2999023,253.807474 L89.2080078,258.349292 L92.359668,259.15079 C94.069043,259.631688 97.8083008,261.181249 100.586035,262.677378 L105.660742,265.349035 L105.820996,269.463388 L105.98125,273.577741 L109.026074,273.524308 C110.682031,273.524308 113.940527,273.310575 116.2375,273.096842 C120.510937,272.615944 121.632715,272.88311 128.630469,275.982233 C129.538574,276.356265 134.666699,278.386724 140.115332,280.524051 C145.563965,282.661377 151.813867,285.119302 154.004004,285.974232 C171.631934,293.027408 176.97373,295.111301 178.843359,295.752499 C180.018555,296.126531 184.238574,297.782959 188.244922,299.385953 C192.25127,300.988948 196.257617,302.485076 197.219141,302.698809 C198.340918,302.912541 199.355859,303.767472 200.424219,305.2636 C201.278906,306.492563 202.881445,308.362723 203.949805,309.377953 C205.018164,310.393183 207.849316,313.759471 210.253125,316.858594 C212.656934,319.957717 216.556445,324.499535 219.013672,327.010893 C221.41748,329.522251 224.408887,332.72824 225.584082,334.224369 L227.720801,336.896026 L227.720801,342.506507 C227.720801,347.742956 227.613965,348.330721 226.385352,350.040582 C222.325586,355.43733 217.250879,368.207854 216.663281,374.406099 C216.289355,378.14642 216.18252,378.30672 212.76377,379.589115 C207.368555,381.673008 201.866504,391.558141 200.424219,401.817307 C199.890039,405.664494 199.943457,406.78659 200.584473,409.030782 L201.43916,411.70244 L203.896387,411.54214 C205.231836,411.435274 206.353613,411.488707 206.353613,411.649007 C206.353613,411.809306 205.338672,413.038269 204.110059,414.480964 C201.332324,417.740386 199.249023,422.175338 197.806738,427.999551 C197.165723,430.51091 196.471289,433.3963 196.150781,434.41153 C195.082422,438.15185 194.922168,449.372812 195.883691,455.303892 C197.806738,466.79202 203.469043,479.615977 210.466797,488.272147 L212.283008,490.51634 L210.520215,490.462907 C209.558691,490.409473 208.169824,490.302607 207.421973,490.142308 Z" id="Path" fill="url(#linearGradient-1)"></path>
                <path d="M329.749121,490.142308 C329.749121,489.982008 330.710645,488.753046 331.939258,487.417217 C334.77041,484.211228 339.471191,474.539827 341.180566,468.341581 C343.050195,461.822737 343.851465,451.884171 343.103613,444.830994 C342.516016,439.808278 342.14209,437.564086 340.219043,429.068214 C339.738281,427.037755 339.417773,422.816536 339.364355,418.915915 C339.310937,401.87074 335.83877,389.15365 329.535449,382.795104 C327.879492,381.19211 325.742773,379.535682 324.727832,379.108217 C323.125293,378.413586 322.858203,377.986121 322.003516,374.726698 C319.439453,364.574399 314.685254,352.765673 311.10625,347.582657 C310.465234,346.727726 309.984473,345.659063 309.984473,345.231598 C309.984473,344.857566 310.945996,342.079042 312.121191,339.140219 C314.311328,333.690037 315.807031,331.285545 319.439453,327.384925 C321.683008,324.927 325.849609,319.957717 330.016211,314.667835 C335.518262,307.721525 340.860059,303.23314 344.812988,302.164477 C346.362109,301.737012 350.421875,300.294317 353.787207,298.905055 C357.152539,297.569226 363.18877,295.164734 367.141699,293.615173 C375.421484,290.302317 387.226855,285.546767 388.775977,284.798703 C391.393457,283.56974 405.335547,277.745527 409.395312,276.195965 C411.852539,275.287602 415.645215,273.684607 417.835352,272.669377 C421.788281,270.85265 423.283984,270.211452 430.441992,267.379495 C432.525293,266.577998 434.44834,265.723067 434.71543,265.509335 C435.035937,265.295602 437.653418,264.120073 440.591406,262.89111 C448.337012,259.631688 450.580566,258.188993 450.153223,256.906597 C449.992969,256.265399 451.80918,249.853421 454.96084,240.288887 C457.738574,231.686149 460.783398,222.175048 461.744922,219.075925 C462.653027,215.976802 463.935059,211.809016 464.629492,209.725123 C465.804687,206.145102 466.712793,203.152846 469.971289,191.825017 C470.772559,189.046493 471.894336,185.199306 472.481934,183.275713 C475.259668,173.924911 476.648535,169.222794 477.930566,164.57411 C478.678418,161.795586 479.907031,157.200335 480.654883,154.421811 C484.554395,140.315458 490.056445,118.407866 492.513672,107.400636 C493.261523,104.034348 494.703809,97.5155033 495.71875,92.9736853 C496.787109,88.4318674 497.748633,83.8900494 497.855469,82.9282526 C498.015723,81.9664559 498.33623,81.1115255 498.549902,80.951226 C499.244336,80.5237608 504.960059,89.8745625 509.981348,99.5993962 C515.136911,109.588886 527.126711,149.727942 531.669043,170.897592 C536.211375,192.067242 537.222309,213.73261 537.222309,226.556567 C537.222309,250.158997 535.37122,274.239538 531.669043,298.798189 L528.677637,308.255857 C525.739648,317.392926 520.558105,330.964946 517.03252,338.499021 C516.070996,340.582914 514.094531,344.7507 512.652246,347.849823 C511.263379,350.948945 509.821094,353.834336 509.447168,354.261801 C509.12666,354.689266 508.165137,356.345694 507.363867,357.948688 C506.616016,359.49825 504.372461,363.452303 502.395996,366.765159 C500.419531,370.024581 498.656738,373.070271 498.443066,373.497736 C497.802051,374.886998 488.827832,387.604088 485.248828,392.252772 C470.238379,411.595574 452.503613,429.014781 432.578711,443.869198 C428.14502,447.12862 415.111035,455.838224 412.814062,456.96032 C411.638867,457.601518 409.662402,458.777047 408.380371,459.631978 C405.388965,461.715871 388.775977,470.104876 381.030371,473.524597 C373.338184,476.837453 360.784961,481.69987 355.122656,483.40973 C351.062891,484.638693 348.605664,485.333324 339.791699,487.898115 C334.663574,489.34081 329.749121,490.462907 329.749121,490.142308 Z" id="Path" fill="url(#linearGradient-2)"></path>
                <path d="M287.014746,474.165795 C274.888867,466.578287 267.624023,462.624234 250.583691,454.181796 C243.318848,450.601775 236.374512,447.021754 235.09248,446.220256 C231.513477,443.922631 224.782813,437.350353 222.432422,433.877198 C220.188867,430.457476 215.755176,419.770846 213.778711,412.931402 C213.137695,410.633777 212.389844,408.763616 212.122754,408.763616 C211.855664,408.763616 211.42832,409.351381 211.16123,410.099445 L210.627051,411.488707 L208.490332,410.366611 C205.231836,408.710183 204.110059,406.519424 204.377148,402.618804 C205.018164,394.870997 208.597168,388.084986 214.84707,382.955404 C216.396191,381.673008 216.716699,381.566142 217.517969,382.20734 C217.99873,382.634805 219.173926,383.169136 220.135449,383.382869 C221.791406,383.703468 221.844824,383.703468 221.310645,382.314206 C220.242285,379.482249 220.723047,374.780131 222.699512,368.528453 C224.996484,361.475277 225.584082,360.192881 230.178027,353.032838 C236.748438,342.827106 246.95127,334.064069 256.887012,330.110016 C263.671094,327.384925 272.271387,327.064326 279.482813,329.201652 C287.175,331.552711 293.638574,335.77393 300.636328,343.094272 C310.358398,353.300004 315.005762,363.185137 319.813379,384.184366 C319.973633,384.93243 320.56123,386.10796 321.148828,386.802591 L322.16377,388.084986 L322.965039,386.535425 C324.674414,383.22257 325.155176,383.276003 327.772656,386.96289 C332.687109,393.9092 333.381543,396.527425 334.022559,411.114675 C334.343066,417.259488 334.449902,422.38907 334.343066,422.495937 C334.022559,422.816536 329.802539,417.312921 326.597461,412.290205 C324.994922,409.778846 323.445801,407.855253 323.232129,408.015552 C323.018457,408.175852 322.804785,408.977349 322.804785,409.778846 C322.804785,411.274975 322.697949,411.809306 320.454395,424.259231 C319.706543,428.213284 318.851855,433.449733 318.47793,435.854225 C317.94375,439.808278 317.569824,440.716642 314.898926,444.670695 C311.693848,449.533112 306.565723,459.792277 304.482422,465.669924 C302.452539,471.333838 298.179102,480.364041 297.484668,480.310844 C297.16416,480.310844 292.463379,477.532084 287.014746,474.165795 Z" id="Path" fill="#000000"></path>
                <path d="M231.994238,337.323492 C231.994238,332.140476 231.780566,332.674807 236.855273,325.568198 C242.99834,317.072327 251.705469,306.866595 262.389063,295.752499 C268.532129,289.340521 270.294922,287.844392 271.149609,288.378724 C271.844043,288.752756 283.75625,301.416413 287.121582,305.370466 C287.869434,306.27883 290.112988,308.897054 292.142871,311.248113 C300.155566,320.598915 304.055078,325.888797 307.260156,332.087043 L308.916113,335.293032 L307.95459,337.911256 C307.473828,339.353951 306.725977,340.636347 306.405469,340.743213 C306.084961,340.85008 304.856348,339.67455 303.681152,338.124989 C299.087207,331.87331 288.563867,324.446102 280.818262,321.881311 C275.583301,320.17145 271.416699,319.797418 265.86123,320.598915 C261.374121,321.240113 255.765234,323.05684 252.827246,324.820134 C246.897852,328.346722 241.92998,332.140476 237.389453,336.682294 L231.994238,341.972176 L231.994238,337.323492 Z" id="Path" fill="#000000"></path>
                <path d="M221.310645,324.980433 C220.295703,323.591171 216.396191,318.782188 212.603516,314.186937 C203.095117,302.645376 203.201953,302.752242 199.462695,297.195194 C195.937109,291.958745 194.387988,288.806189 194.86875,288.058125 C194.975586,287.790959 195.776855,287.416927 196.578125,287.203195 C198.234082,286.829163 199.409277,285.974232 199.409277,285.279601 C199.409277,285.012435 198.127246,284.798703 196.631543,284.798703 L193.800391,284.798703 L187.22998,277.745527 L180.65957,270.69235 L182.101855,269.944286 C186.108203,267.860393 205.125,263.639174 214.099219,262.89111 C217.624805,262.623944 221.737988,262.143046 223.180273,261.87588 C232.154492,260.112586 261.374121,258.669891 293.157813,258.349292 C311.10625,258.188993 311.587012,258.188993 300.636328,258.669891 C294.172754,258.937057 283.115234,259.364522 276.064063,259.685121 C269.012891,260.00572 257.367773,260.486618 250.156348,260.753784 C235.466406,261.341549 227.293457,262.03618 226.492188,262.837677 C226.17168,263.158276 226.43877,263.532308 227.133203,263.90634 C228.415234,264.600971 228.52207,265.723067 227.667383,270.85265 C227.026367,274.646404 222.75293,297.943258 221.737988,303.179707 C220.723047,308.30929 220.990137,315.415899 222.325586,321.560712 C223.02002,324.606401 223.447363,327.171193 223.393945,327.278059 C223.287109,327.384925 222.325586,326.316262 221.310645,324.980433 Z" id="Path" fill="#000000"></path>
                <path d="M227.507129,325.835364 C227.346875,325.140733 226.919531,322.255343 226.545605,319.423386 C225.477246,310.820648 226.492188,307.561226 238.297559,281.592714 C243.479102,270.104586 245.081641,267.700094 247.164941,267.700094 C248.073047,267.700094 248.126465,267.80696 247.485449,268.234425 C246.791016,268.715324 247.111523,268.98249 248.179883,268.82219 C248.393555,268.82219 248.553809,269.035923 248.553809,269.356522 C248.553809,269.677121 249.03457,269.783987 249.622168,269.570254 C250.583691,269.249655 250.690527,269.409955 250.37002,270.532051 C250.156348,271.600714 250.583691,272.669377 252.399902,275.287602 C253.628516,277.157762 255.017383,279.348521 255.337891,280.150018 C255.711816,281.004949 256.245996,281.53928 256.566504,281.325548 C256.887012,281.165248 256.94043,281.325548 256.780176,281.806446 C256.566504,282.287345 256.833594,282.768243 257.314355,282.981976 C257.848535,283.195708 258.169043,283.943772 258.169043,284.852136 C258.169043,285.760499 258.542969,286.989462 258.970313,287.684093 C259.771582,288.859622 259.718164,289.073355 258.062207,290.996948 C257.100684,292.172478 255.177637,294.149504 253.842188,295.485333 C252.506738,296.821162 250.797363,298.744756 250.049512,299.759985 C249.30166,300.775215 247.538867,302.859108 246.096582,304.301803 C238.991992,311.622145 230.765625,321.827877 229.483594,325.033867 C228.575488,327.278059 227.987891,327.545225 227.507129,325.835364 Z" id="Path" fill="#000000"></path>
                <path d="M317.302734,322.201909 C319.386035,314.186937 318.798438,303.019408 315.32627,284.050639 C312.975879,271.173249 311.426758,260.219453 311.854102,259.738554 C312.441699,259.15079 331.565332,259.097356 335.358008,259.685121 C337.708398,260.059153 340.699805,260.433185 342.035254,260.593485 C343.530957,260.753784 344.75957,261.234682 345.240332,261.87588 C346.09502,262.997977 352.66543,265.562768 354.588477,265.562768 C355.28291,265.562768 356.08418,265.9368 356.458105,266.364265 C356.992285,267.058896 356.938867,267.165762 355.870508,267.165762 C355.069238,267.165762 354.802148,267.326062 355.229492,267.593228 C356.08418,268.127559 355.496582,270.371752 354.535059,270.371752 C354.054297,270.371752 353.787207,271.012949 353.787207,272.241912 C353.787207,274.112072 349.780859,282.661377 348.872754,282.661377 C348.605664,282.661377 348.498828,282.875109 348.7125,283.195708 C348.872754,283.462874 348.7125,284.157505 348.391992,284.691836 C347.750977,285.707066 347.750977,285.707066 346.789453,284.74527 C345.454004,283.409441 345.507422,282.768243 346.842871,283.997205 C347.430469,284.531537 347.91123,284.691836 347.91123,284.424671 C347.91123,283.516307 346.522363,282.607943 345.614258,282.981976 C345.080078,283.195708 344.225391,282.71481 343.317285,281.753013 L341.928418,280.256885 L342.302344,282.394211 C342.729688,284.74527 343.637793,286.187965 343.637793,284.531537 C343.637793,283.997205 343.798047,283.73004 344.011719,283.890339 C344.171973,284.104072 344.011719,284.852136 343.637793,285.6002 C343.103613,286.561997 343.103613,287.149761 343.477539,287.523793 C343.851465,287.897826 344.118555,287.684093 344.385645,286.722296 C344.812988,284.905569 345.56084,284.959002 346.041602,286.775729 C346.255273,287.737526 346.148438,288.432157 345.667676,288.806189 C345.240332,289.073355 344.385645,290.51605 343.691211,292.012178 C342.355762,294.844135 341.287402,296.393697 338.242578,299.920285 C337.174219,301.149247 333.755469,305.4239 330.657227,309.377953 C327.505566,313.332006 324.24707,317.553225 323.338965,318.675321 C322.430859,319.850851 320.400977,322.148476 318.905273,323.804904 L316.127539,326.797161 L317.302734,322.201909 Z" id="Path" fill="#000000"></path>
                <path d="M311.052832,324.873567 C310.678906,324.125503 308.969531,321.667578 307.260156,319.369952 C304.482422,315.629632 302.933301,313.759471 296.042383,305.958231 C294.974023,304.729269 293.531738,303.072841 292.837305,302.164477 C292.142871,301.309547 289.578809,298.47759 287.121582,295.966232 C280.978516,289.554253 280.711426,288.378724 284.237012,281.325548 C287.70918,274.379238 293.74541,266.631431 295.027441,267.432928 C295.668457,267.80696 298.179102,272.936543 305.283691,288.539023 C311.37334,301.790445 312.975879,306.171964 313.777148,311.248113 C314.471582,315.843364 314.204492,318.515022 312.708789,323.270573 C311.800684,326.155963 311.800684,326.209396 311.052832,324.873567 Z" id="Path" fill="#000000"></path>
                <path d="M346.308691,297.729526 C346.308691,297.515793 346.629199,296.821162 347.056543,296.233397 C348.872754,293.668606 352.184668,286.882596 353.466699,283.035409 C354.267969,280.791216 356.030762,276.463131 357.473047,273.417441 C358.915332,270.425185 360.624707,266.471131 361.265723,264.600971 L362.494336,261.234682 L386.158496,261.608715 L409.822656,261.982747 L409.98291,255.08987 L410.143164,248.196993 L413.615332,247.822961 C415.538379,247.609229 417.835352,247.342063 418.690039,247.181763 L420.292578,246.861164 L420.292578,174.085211 C420.292578,134.010346 420.452832,103.927482 420.613086,107.133471 C420.987012,113.278283 421.30752,134.811844 422.215625,203.847477 C422.482715,226.503133 422.910059,245.845935 423.12373,246.861164 C423.551074,248.571025 423.711328,248.731325 425.420703,248.571025 C426.435645,248.517592 428.999707,247.929828 431.136426,247.235197 L435.035937,246.059667 L434.71543,239.113357 C434.555176,235.319604 434.18125,227.251197 433.91416,221.213251 C433.593652,215.175305 433.112891,204.381808 432.845801,197.168333 C432.525293,189.954857 432.044531,179.535392 431.777441,173.924911 C431.243262,163.291714 430.49541,148.063266 429.640723,130.109726 C429.373633,124.23208 428.892871,114.881278 428.625781,109.270797 C428.305273,103.713749 427.931348,84.6915467 427.771094,67.0586064 C427.61084,49.425666 427.34375,27.9455387 427.183496,19.289368 L426.862988,3.58002122 L430.014648,6.09137938 C431.724023,7.48064135 435.570117,10.526331 438.614941,12.9308229 C441.659766,15.2818816 446.200293,19.0222023 448.764355,21.2663947 C456.242871,27.678373 471.680664,43.5480193 477.610059,50.7614949 C480.654883,54.4483824 483.913379,58.4024357 484.874902,59.577965 C488.453906,63.9060504 494.810645,73.7377504 494.810645,74.9667129 C494.810645,75.6613439 494.329883,78.1192689 493.742285,80.4703276 C493.208105,82.7679532 492.139746,87.0960385 491.391895,90.0348619 C490.697461,92.9736853 489.842773,96.9277386 489.468848,98.8513321 C489.14834,100.774926 488.186816,105.103011 487.385547,108.4693 C486.530859,111.835588 485.19541,117.499502 484.394141,121.02609 C482.84502,127.758668 476.755371,151.162388 476.381445,151.750153 C476.221191,152.017319 475.580176,154.421811 471.573828,169.650259 C470.825977,172.589083 469.864453,175.848505 469.437109,176.863735 C469.009766,177.878965 467.353809,183.649745 465.697852,189.687691 C464.041895,195.725638 462.012012,202.671947 461.157324,205.183306 C460.356055,207.694664 458.806934,212.71738 457.738574,216.404268 C456.670215,220.091155 453.89248,228.961058 451.595508,236.174534 C449.245117,243.38801 447.215234,250.067154 447.001562,251.02895 C446.787891,251.937314 446.467383,252.738811 446.200293,252.738811 C445.986621,252.738811 445.505859,253.433442 445.23877,254.288373 C444.651172,255.998234 442.354199,257.227196 429.106543,262.730811 C410.997852,270.318318 406.56416,272.188479 395.720312,276.890596 C378.733398,284.264371 370.079687,287.790959 365.699414,289.126788 C364.737891,289.393954 362.601172,290.409184 360.891797,291.37098 C359.182422,292.332777 356.35127,293.668606 354.588477,294.363237 C352.825684,295.057868 350.368457,296.179964 349.139844,296.874595 C346.736035,298.263857 346.308691,298.370723 346.308691,297.729526 Z" id="Path" fill="#000000"></path>
                <path d="M188.725684,295.111301 C186.802637,294.363237 184.291992,293.348007 183.116797,292.813676 C179.965137,291.37098 170.082813,287.416927 167.625586,286.61543 C165.755957,286.027665 157.369336,282.501077 154.271094,281.058382 C153.683496,280.791216 150.585254,279.562254 147.326758,278.386724 C144.12168,277.157762 139.207227,275.341035 136.429492,274.325805 C130.17959,272.028179 129.37832,271.600714 130.500098,271.280115 C133.651758,270.264885 169.228125,266.097099 174.676758,266.097099 C179.484375,266.097099 179.804883,266.310832 178.255762,268.608458 C176.012207,271.921313 176.065625,271.974746 186.108203,282.447644 C189.420117,285.813933 189.900879,286.61543 191.022656,290.462617 C191.71709,292.760242 192.464941,295.111301 192.732031,295.645633 C193.212793,296.767729 192.999121,296.767729 188.725684,295.111301 Z" id="Path" fill="#000000"></path>
                <path d="M270.294922,279.989719 C270.61543,278.707323 270.08125,278.600457 268.852637,279.722553 C268.051367,280.417184 267.677441,280.363751 265.220215,279.134789 C260.572852,276.837163 258.115625,272.455644 260.198926,270.051153 C260.733105,269.409955 261.694629,268.661891 262.335645,268.287859 C262.97666,267.96726 263.51084,267.379495 263.51084,266.95203 C263.51084,265.9368 267.837695,263.959773 270.829102,263.639174 C273.927344,263.318575 277.559766,264.707837 280.123828,267.272629 C281.726367,268.875623 281.779785,269.142789 281.512695,271.921313 C281.245605,274.539537 280.925098,275.180735 279.002051,276.997462 C277.132422,278.707323 276.491406,278.974489 275.209375,278.707323 C274.354688,278.547024 273.660254,278.600457 273.660254,278.81419 C273.660254,279.188222 270.88252,281.058382 270.294922,281.058382 C270.134668,281.058382 270.134668,280.577484 270.294922,279.989719 Z" id="Path" fill="#000000"></path>
                <path d="M354.695313,275.394468 C354.481641,275.180735 354.321387,274.646404 354.321387,274.165505 C354.321387,273.577741 354.481641,273.524308 354.908984,273.951773 C355.229492,274.272372 355.443164,274.806703 355.28291,275.180735 C355.176074,275.501334 354.908984,275.6082 354.695313,275.394468 Z" id="Path" fill="#000000"></path>
                <path d="M268.211621,261.982747 C268.585547,261.822447 269.066309,261.87588 269.226563,262.03618 C269.440234,262.196479 269.119727,262.356779 268.532129,262.303346 C267.944531,262.303346 267.784277,262.143046 268.211621,261.982747 Z" id="Path" fill="#000000"></path>
                <path d="M270.455176,261.02095 C270.829102,260.593485 271.363281,260.219453 271.630371,260.219453 C271.950879,260.219453 271.897461,260.593485 271.523535,261.02095 C271.149609,261.448415 270.61543,261.822447 270.34834,261.822447 C270.027832,261.822447 270.08125,261.448415 270.455176,261.02095 Z" id="Path" fill="#000000"></path>
                <path d="M355.656836,261.288116 C355.496582,261.02095 355.55,260.753784 355.870508,260.753784 C356.137598,260.753784 356.564941,261.02095 356.725195,261.288116 C356.885449,261.608715 356.832031,261.822447 356.511523,261.822447 C356.244434,261.822447 355.81709,261.608715 355.656836,261.288116 Z" id="Path" fill="#000000"></path>
                <path d="M350.849219,260.753784 C351.009473,260.486618 351.383398,260.219453 351.703906,260.219453 C351.970996,260.219453 352.184668,260.486618 352.184668,260.753784 C352.184668,261.074383 351.810742,261.288116 351.32998,261.288116 C350.902637,261.288116 350.688965,261.074383 350.849219,260.753784 Z" id="Path" fill="#000000"></path>
                <path d="M100.318945,257.814961 C97.7014648,256.532565 95.0839844,255.463902 94.6032227,255.463902 C93.962207,255.410469 93.4814453,254.662405 93.1075195,253.166276 C92.7870117,251.883881 91.6118164,247.876394 90.4366211,244.189507 C89.2614258,240.502619 87.3383789,234.25094 86.1631836,230.296887 C84.9345703,226.342834 82.9046875,219.823989 81.6226562,215.869936 C80.340625,211.915883 77.8299805,203.633744 76.0137695,197.435498 C74.1975586,191.290686 72.0608398,183.916911 71.2061523,181.138387 C70.3514648,178.359863 68.9625977,173.550879 68.1079102,170.451756 C67.1998047,167.352634 65.2767578,160.620056 63.7810547,155.490474 C62.2853516,150.360891 60.9499023,145.445041 60.7362305,144.536677 C60.5759766,143.681747 59.6144531,139.83456 58.5995117,135.987373 C54.0055664,118.194133 51.6551758,108.255567 47.4351562,88.6990331 C46.6873047,85.3327445 45.6189453,80.7374934 45.0847656,78.5467341 L44.0698242,74.5392477 L46.4736328,70.6386276 C49.3582031,65.9899433 61.3772461,49.9065644 63.7276367,47.5555057 C64.0481445,47.2349068 67.7874023,43.0671209 72.5416016,37.7238057 C75.8000977,34.0903513 87.6054687,22.8159561 93.3746094,17.8466729 C97.5412109,14.2666517 108.438477,5.87764677 108.919238,5.87764677 C109.13291,5.87764677 109.13291,12.5567908 108.972656,20.67863 C107.744043,72.6690874 106.889355,132.514218 106.141504,220.304888 C105.927832,242.265913 105.607324,260.219453 105.44707,260.166138 C105.286816,260.166138 102.989844,259.097356 100.318945,257.814961 Z" id="Path" fill="#000000"></path>
                <path d="M387.974707,255.570768 C372.162988,255.410469 347.483887,254.288373 340.432715,253.486875 C336.746875,253.05941 328.573926,252.525079 322.270605,252.364779 C314.79209,252.151047 311.533594,251.883881 312.975879,251.616715 C314.631836,251.296116 370.507031,250.227453 402.130469,249.853421 L405.335547,249.799988 L405.228711,251.563282 C405.068457,255.784501 404.908203,255.9448 400.901855,255.837934 C398.925391,255.784501 393.102832,255.677635 387.974707,255.570768 Z" id="Path" fill="#000000"></path>
                <path d="M308.809277,252.364779 C309.129785,252.257913 309.770801,252.257913 310.144727,252.364779 C310.465234,252.525079 310.198145,252.631945 309.450293,252.631945 C308.702441,252.631945 308.435352,252.525079 308.809277,252.364779 Z" id="Path" fill="#000000"></path>
                <g id="paper-lines" transform="translate(129.912500, 0.000000)">
                    <polygon id="Path" fill="url(#linearGradient-3)" points="0.480761719 216.938599 0.694433594 213.73261 79.8064453 213.839476 158.971875 213.999776 158.971875 216.938599 158.971875 219.877422 79.6461914 220.037722 0.320507813 220.144588"></polygon>
                    <polygon id="Path" fill="url(#linearGradient-4)" points="0.053417969 181.939884 0.053417969 179.001061 135.467969 179.001061 270.88252 179.001061 270.88252 181.939884 270.88252 184.878708 135.467969 184.878708 0.053417969 184.878708"></polygon>
                    <polygon id="Path" fill="url(#linearGradient-5)" points="0.587597656 131.445555 0.587597656 128.239566 135.628223 128.346432 270.61543 128.506732 270.61543 131.445555 270.61543 134.384378 135.628223 134.491245 0.587597656 134.598111"></polygon>
                    <polygon id="Path" fill="url(#linearGradient-6)" points="0.0534179688 110.33946 0.0534179688 107.400636 135.361133 107.507503 270.61543 107.667802 270.775684 110.499759 270.935938 113.278283 135.521387 113.278283 0.0534179688 113.278283"></polygon>
                    <polygon id="Path" fill="url(#linearGradient-4)" points="0.0534179688 87.3632043 0.0534179688 84.4243809 135.467969 84.4243809 270.88252 84.4243809 270.88252 87.3632043 270.88252 90.3020277 135.467969 90.3020277 0.0534179688 90.3020277"></polygon>
                    <path d="M6.8375,62.6236547 L0,62.4633552 L0.160253906,59.6848313 L0.320507812,56.9063074 L135.467969,56.9063074 L270.61543,56.9063074 L270.61543,59.8451308 L270.61543,62.7839542 L142.145215,62.7839542 C71.4732422,62.7839542 10.5767578,62.730521 6.8375,62.6236547 Z" id="Path" fill="url(#linearGradient-7)"></path>
                    <path d="M0.267089844,44.6701155 C0.104671529,44.2960834 0.0534179688,42.9068214 0.160253906,41.6244258 L0.320507813,39.2733671 L135.628223,39.1130676 L270.935938,39.0062013 L270.775684,41.7847252 L270.61543,44.6166823 L217.464551,44.9372812 C188.244922,45.0975807 127.455273,45.3113133 82.4239258,45.3647465 C13.0874023,45.4181796 0.534179688,45.3113133 0.267089844,44.6701155 Z" id="Path" fill="url(#linearGradient-8)"></path>
                    <polygon id="Path" fill="url(#linearGradient-9)" points="0.587597656 21.7472931 0.587597656 18.7016034 135.628223 18.8084697 270.61543 18.9687691 270.61543 21.9075925 270.61543 24.7929828 135.628223 24.8464159 0.587597656 24.8464159"></polygon>
                    <path d="M3.04482422,6.46541145 C2.83115234,6.14481254 2.19013672,5.87764677 1.60253906,5.87764677 C0.747851563,5.87764677 0.587597656,5.50361471 0.587597656,2.93882339 L0.587597656,0 L92.4665039,0 L184.34541,0 L184.34541,2.93882339 L184.34541,5.87764677 L94.4429688,5.87764677 C30.3948242,5.87764677 4.38027344,6.03794623 3.95292969,6.46541145 C3.52558594,6.89287667 3.25849609,6.89287667 3.04482422,6.46541145 Z" id="Path" fill="url(#linearGradient-10)"></path>
                </g>
            </g>
        </g>
    </g>
</svg>