<?xml version="1.0" encoding="UTF-8"?>
<svg width="538px" height="539px" viewBox="0 0 538 539" version="1.1" xmlns="http://www.w3.org/2000/svg" xmlns:xlink="http://www.w3.org/1999/xlink">
    <title>team-ill</title>
    <g id="team-ill" stroke="none" stroke-width="1" fill="none" fill-rule="evenodd">
        <g id="ai_image_1686346145823" transform="translate(0.000000, 72.000000)" fill="#00FF00" fill-rule="nonzero">
            <g id="Group" transform="translate(269.500000, 204.500000) scale(-1, 1) rotate(-180.000000) translate(-269.500000, -204.500000) ">
                <path d="M169.784511,408.153209 C164.190669,407.052381 158.512073,402.987785 154.8676,397.483644 L151.646903,392.487578 L151.646903,361.240994 C151.646903,339.986542 151.985924,328.978261 152.663965,326.776605 C154.8676,319.409524 161.648014,315.514286 174.19178,314.413458 L180.124642,313.905383 L184.02338,304.082609 C186.14226,298.663147 189.278201,290.449275 191.142815,285.791925 C193.431205,279.695031 195.211064,276.392547 197.584208,274.021532 C200.55064,271.057764 201.143926,270.803727 204.364622,271.227122 C206.483502,271.481159 208.687136,272.497308 209.958464,273.852174 C212.67063,276.561905 213.433426,282.150725 213.433426,301.288199 L213.518181,315.006211 L289.204553,315.006211 L364.890925,315.006211 L369.298194,317.207867 C374.892035,320.002277 378.451753,324.320911 379.638325,329.571014 C380.146856,332.026708 380.485877,345.998758 380.485877,363.612008 C380.485877,400.108696 380.401122,400.701449 371.247563,406.628986 L367.43358,409 L270.388904,408.915321 C216.908388,408.830642 171.649125,408.491925 169.784511,408.153209 Z M364.212883,393.080331 L366.077497,391.979503 L365.907987,362.680538 L365.653721,333.381573 L363.450087,331.772671 C361.246452,330.079089 359.042817,330.079089 286.322877,329.655694 C226.570478,329.232298 210.975526,328.978261 209.195667,328.046791 C205.720705,326.353209 202.669519,318.901449 201.991478,310.687578 C201.482946,304.421325 201.313436,303.99793 200.296374,305.77619 C199.703088,306.877019 198.686026,309.078675 198.177495,310.687578 C197.075677,313.990062 192.414143,321.949896 189.447712,325.591097 C187.498343,328.046791 187.159322,328.13147 178.429539,328.554865 C171.394859,328.893582 169.191225,329.316977 168.004652,330.502484 C166.648569,331.85735 166.479059,334.482402 166.224794,358.869979 C165.970528,386.560041 166.309549,391.217391 169.27598,392.572257 C170.801573,393.419048 245.131862,394.181159 317.343271,394.181159 C352.516669,394.181159 362.68729,393.927122 364.212883,393.080331 Z" id="Shape"></path>
                <path d="M195.550084,379.192961 C192.329388,376.567909 193.431205,369.624224 197.329943,367.507246 C199.872598,366.23706 328.107178,366.321739 329.463261,367.676605 C330.988854,369.200828 330.734589,377.245342 329.124241,378.854244 C327.937668,380.039752 320.733478,380.20911 262.337162,380.20911 C211.229792,380.20911 196.567146,379.955072 195.550084,379.192961 Z" id="Path"></path>
                <path d="M197.160433,354.12795 C195.211064,351.926294 195.211064,345.321325 197.245188,343.627743 C198.516515,342.526915 207.92434,342.272878 270.81268,341.764803 L342.939334,341.17205 L345.227724,343.797101 C347.770379,346.845549 348.1094,350.910145 346.075276,353.789234 L344.803948,355.652174 L271.660232,355.652174 C201.906722,355.652174 198.43176,355.567495 197.160433,354.12795 Z" id="Path"></path>
                <path d="M94.0133841,296.715528 C91.046953,294.68323 79.6050043,284.521739 77.3166146,281.981366 C76.2995525,280.795859 73.9264076,278.170807 71.9770385,276.05383 C70.0276695,273.936853 67.9087901,271.142443 67.1459936,269.702899 C66.383197,268.348033 64.6033383,265.384265 63.0777451,263.267288 C59.4332726,258.186542 56.1278208,248.363768 55.4497794,240.488613 C54.0936965,225.500414 60.8741106,195.354658 68.1630557,183.753623 C70.7904661,179.604348 71.8922834,178.842236 75.7910214,178.50352 C79.1812285,178.249482 79.1812285,178.249482 80.4525561,173.338095 L81.6391285,168.511387 L78.4184319,161.906418 C76.6385732,158.349896 73.6721421,153.607867 71.8922834,151.406211 C68.2478108,147.172257 59.0942519,140.906004 49.4321619,136.163975 C46.1267101,134.555072 41.0413995,131.421946 38.0749684,129.22029 C35.1085373,127.103313 31.9725958,125.325052 31.2097992,125.325052 C30.3622474,125.325052 27.9043474,124.393582 25.7007128,123.208075 C23.4970782,122.022567 20.954423,121.091097 20.1068712,121.091097 C17.7337263,121.091097 15.1910711,119.566874 15.1910711,118.127329 C15.1910711,116.433747 16.8014194,116.518427 18.7507884,118.296687 C20.1916264,119.566874 20.2763816,119.566874 20.2763816,117.788613 C20.2763816,116.772464 19.5983402,114.909524 18.8355436,113.639337 C17.3947056,111.353002 17.3947056,111.353002 19.0898091,112.877226 C21.2934437,114.740166 21.8867299,114.740166 21.3781989,112.707867 C21.1239333,111.776398 19.5983402,109.998137 17.8184815,108.558592 C16.123378,107.203727 14.0044986,104.748033 13.0721917,103.054451 C12.0551296,101.106832 10.1057605,99.3285714 7.64786045,98.0583851 C4.76618449,96.6188406 3.24059133,95.094617 1.79975335,92.300207 C-0.0648605046,88.7436853 -0.14961568,87.7275362 0.104649846,75.3643892 C0.528425723,58.2592133 0.613180898,58.005176 9.00394326,57.2430642 C12.5636606,56.9890269 46.1267101,56.7349896 83.5884976,56.7349896 C120.96553,56.7349896 151.646903,56.5656315 151.646903,56.3115942 C151.646903,55.9728778 151.138372,54.7873706 150.460331,53.5171843 C147.409145,47.4202899 144.696979,37.3434783 143.934182,28.8755694 C143.425651,23.9641822 142.832365,17.7826087 142.5781,15.1575569 C141.984813,9.14534161 143.340896,4.91138716 146.731103,2.11697723 L149.273758,0 L272.931559,0.169358178 L396.58936,0.423395445 L398.87775,2.79440994 L401.250895,5.16542443 L401.081384,17.1898551 C400.827119,34.9724638 399.386281,41.9161491 393.453419,55.7188406 C393.114398,56.4809524 407.183757,56.7349896 462.189866,56.7349896 C538.639034,56.7349896 534.909806,56.4809524 537.621972,62.1544513 C539.401831,65.9650104 539.486586,82.0540373 537.706727,89.5904762 C536.181134,95.9414079 532.367151,103.816563 528.722679,107.965839 C524.908696,112.199793 513.127726,120.921739 507.957661,123.208075 C502.957105,125.409731 503.211371,124.393582 501.685778,143.531056 C499.905919,166.902484 499.058367,175.793789 498.12606,183.922981 C497.108998,193.153002 496.515712,193.915114 490.58285,193.915114 C487.785929,193.915114 487.701174,194.338509 489.396277,197.302277 C490.074319,198.487785 490.58285,200.435404 490.667605,201.70559 C490.667605,202.975776 491.345646,204.5 492.193198,205.092754 C497.278508,208.649275 496.939488,212.713872 489.650543,236.508696 C482.276842,260.811594 465.495318,277.154658 441.594358,283.336232 C433.712127,285.36853 431.762758,285.537888 422.100668,285.199172 C413.370885,284.860455 410.404454,284.352381 405.658164,282.57412 C395.826564,278.932919 393.707684,275.291718 397.436912,268.517391 C399.04726,265.638302 399.132015,265.130228 398.030198,260.388199 C396.58936,253.867909 394.979012,253.444513 390.656498,258.186542 C388.113843,260.980952 386.842515,261.658385 384.554125,261.658385 C381.333429,261.658385 378.536508,259.287371 377.519446,255.730849 C376.756649,252.936439 371.247563,242.097516 369.806725,240.403934 C368.620152,239.133747 367.094559,233.121532 365.3147,223.1294 C363.450087,212.713872 362.51778,196.794203 361.924493,165.124224 C361.585473,147.172257 360.992187,131.930021 360.653166,131.167909 C360.22939,130.15176 358.534286,129.643685 354.805059,129.389648 C346.414296,128.712215 339.633882,124.56294 326.242565,112.030435 C324.123685,109.998137 322.004806,108.389234 321.496275,108.389234 C320.055437,108.389234 316.580475,113.300621 313.698799,119.143478 C312.342716,121.937888 310.308592,125.579089 309.122019,127.103313 C307.935447,128.712215 306.579364,131.252588 305.986078,132.861491 C304.036709,138.704348 304.71475,141.24472 311.495164,153.692547 C322.852358,174.438923 323.699909,176.386542 325.818789,186.971429 C331.751651,215.338923 330.395568,245.145963 322.343827,261.489027 C319.207885,267.924638 312.596981,275.376398 306.494609,279.186957 C295.05266,286.384679 270.897435,284.775776 252.505562,275.545756 C250.301927,274.444928 248.013538,273.513458 247.505007,273.513458 C246.318434,273.513458 232.503341,261.912422 228.689358,257.678468 C217.925451,245.738716 213.518181,233.375569 213.518181,215.254244 C213.518181,201.028157 216.569368,173.84617 219.027268,165.886335 C219.281533,165.124224 221.400413,163.345963 223.688802,161.906418 C226.146703,160.382195 229.028378,157.587785 230.808237,154.793375 C233.605158,150.55942 236.402079,142.430228 236.402079,138.450311 C236.402079,137.434161 236.741099,136.333333 237.24963,135.825259 C237.758162,135.317184 237.503896,133.962319 236.402079,132.099379 C235.469772,130.490476 232.757606,125.240373 230.469216,120.583023 C228.096072,115.840994 225.383906,111.268323 224.451599,110.421532 C222.841251,108.981988 222.756496,108.981988 220.21384,110.844928 C218.773002,111.861077 215.976081,113.893375 213.857202,115.332919 C211.738323,116.772464 209.534688,118.635404 209.026157,119.566874 C208.432871,120.498344 196.821412,126.764596 183.006318,133.538923 C169.27598,140.39793 157.3255,146.494824 156.477948,147.172257 C155.03711,148.442443 149.9518,158.434576 149.9518,160.043478 C149.9518,160.551553 148.426207,162.583851 146.561593,164.616149 L143.086631,168.342029 L148.765227,179.265631 C151.901169,185.193168 155.121866,191.036025 155.884662,192.221532 C160.461442,199.249896 164.021159,210.596894 165.631507,223.97619 C167.326611,237.355487 167.1571,245.4 164.868711,257.847826 C161.817524,274.275569 162.2413,273.682816 153.426762,274.783644 C148.087186,275.461077 141.815303,278.170807 133.25503,283.336232 C129.864823,285.36853 126.898392,287.062112 126.559371,287.062112 C126.305106,287.062112 124.440492,288.16294 122.406368,289.602484 C118.422875,292.396894 106.048619,296.800207 99.9462464,297.646998 C97.0645705,298.070393 95.6237325,297.816356 94.0133841,296.715528 Z M104.692536,229.056936 C116.727771,226.431884 135.54342,226.685921 141.900058,229.649689 C143.086631,230.157764 144.273203,230.327122 144.696979,229.988406 C145.036,229.649689 145.290265,225.077019 145.290265,219.911594 C145.20551,208.818634 143.425651,201.366874 137.577544,187.902899 C133.424541,178.249482 129.441047,172.406625 124.355737,168.342029 C121.389306,166.055694 119.948468,165.547619 115.541199,165.293582 C108.337009,164.785507 105.201067,165.547619 100.454777,168.596066 C97.318836,170.713043 95.9627532,172.491304 93.1658324,178.080124 C86.7244391,191.120704 85.0293356,201.451553 87.5719908,212.967909 C89.2670943,221.097101 95.0304462,231.512629 97.4035912,230.750518 C98.1663877,230.49648 101.47184,229.734369 104.692536,229.056936 Z M410.150188,223.214079 C414.387947,219.149482 427.016468,212.121118 433.966392,210.004141 C440.238275,208.141201 449.6461,206.701656 456.172248,206.616977 C458.969169,206.616977 460.325252,206.193582 460.664273,205.346791 C461.342314,203.653209 458.884414,189.427122 456.680779,182.314079 C451.425959,165.293582 440.577296,153.269151 430.49143,153.269151 C416.506826,153.269151 399.894812,180.36646 399.979244,202.975776 C399.979244,206.108903 400.403343,210.427536 400.911874,212.544513 C401.844181,216.693789 405.827674,226.093168 406.590471,226.093168 C406.929492,226.093168 408.455085,224.822981 410.150188,223.214079 Z M269.626107,210.004141 C274.372397,207.633126 280.47477,203.907246 283.186936,201.70559 C298.273357,189.765839 297.34105,190.866667 299.96846,182.060041 C301.663564,176.386542 301.748319,175.116356 300.900767,170.628364 C298.697133,158.773292 291.747208,146.410145 284.882039,141.837474 C280.898546,139.212422 271.914497,136.926087 268.35478,137.60352 C261.659121,138.958385 256.997586,141.498758 253.353114,145.90207 C248.013538,152.507039 245.979414,156.402277 244.030045,164.192754 C242.419696,170.204969 242.250186,172.575983 242.758717,179.43499 C243.436758,189.427122 245.894658,201.112836 248.183048,205.685507 C249.20011,207.548447 251.149479,210.512215 252.675072,212.205797 C255.048217,214.830849 255.726259,215.169565 258.184159,214.830849 C259.794507,214.576812 264.879818,212.375155 269.626107,210.004141 Z M106.72666,147.172257 C106.72666,146.664182 106.218129,146.748861 105.455333,147.341615 C104.777291,147.934369 104.184005,148.527122 104.184005,148.69648 C104.184005,148.865839 104.777291,148.781159 105.455333,148.527122 C106.133374,148.188406 106.72666,147.595652 106.72666,147.172257 Z M120.626509,147.087578 C120.372244,146.325466 119.355182,146.071429 117.490568,146.410145 L114.778402,146.83354 L117.744833,147.426294 C119.355182,147.680331 120.79602,148.019048 120.880775,148.103727 C120.96553,148.103727 120.880775,147.680331 120.626509,147.087578 Z M416.252561,142.938302 C422.693954,138.873706 423.795771,138.450311 429.220103,138.196273 C437.441355,137.772878 441.763869,139.043064 446.594914,143.615735 C448.798548,145.648033 450.747917,147.341615 451.002183,147.341615 C451.764979,147.341615 450.154631,140.313251 448.290017,135.232505 C446.510158,130.575155 444.89981,128.28882 436.678558,119.397516 C434.729189,117.280538 432.440799,114.655487 431.508492,113.554658 L429.898144,111.437681 L428.796327,113.554658 C428.203041,114.655487 426.846958,116.518427 425.829896,117.703934 C420.65983,123.377433 406.759981,147.341615 408.70935,147.341615 C408.963616,147.341615 412.353823,145.393996 416.252561,142.938302 Z M257.421362,125.579089 C263.269469,122.615321 264.201776,122.361284 270.64317,122.445963 C278.355891,122.445963 285.475325,124.56294 290.391125,128.373499 C293.611822,130.829193 294.374619,130.490476 295.306926,126.256522 C295.900212,123.546791 295.645946,123.123395 289.119798,116.772464 C281.661342,109.65942 274.202887,104.15528 271.744987,104.15528 C268.609045,104.15528 261.574366,108.897308 253.098848,116.772464 C248.945845,120.583023 247.759272,122.954037 247.081231,128.542857 L246.487945,133.115528 L248.776334,130.998551 C250.047662,129.813043 253.861645,127.35735 257.421362,125.579089 Z M173.683249,122.022567 C178.514294,119.820911 196.058615,109.998137 197.329943,108.812629 C198.770781,107.457764 198.43176,106.949689 186.735546,94.3325052 C177.158211,84.0863354 176.395415,83.2395445 173.344228,80.6991718 C172.157656,79.6830228 170.886328,77.6507246 170.632063,76.2111801 C169.784511,72.315942 167.496121,71.1304348 160.546197,71.1304348 C154.782845,71.1304348 154.613335,71.2151139 153.002986,73.9248447 C142.832365,91.284058 141.306772,94.4171843 140.543975,99.4132505 C140.1202,102.20766 139.611668,105.425466 139.357403,106.356936 C139.103137,107.542443 139.950689,109.490062 141.730548,111.861077 C143.340896,113.893375 145.968307,118.04265 147.578655,121.091097 C149.273758,124.139545 151.307883,127.780745 152.155434,129.304969 L153.765783,132.0147 L162.2413,127.696066 C166.902835,125.325052 172.072901,122.784679 173.683249,122.022567 Z M77.4013698,119.90559 C80.0287802,114.824845 81.9781492,112.369151 85.3683563,109.744099 C89.6908702,106.356936 89.7756254,106.272257 87.4872356,106.018219 C84.9445804,105.679503 82.1476596,103.647205 82.1476596,102.122981 C82.1476596,101.614907 81.1305975,99.7519669 79.944025,97.973706 C78.7574526,96.1954451 77.9099008,94.3325052 78.1641663,93.7397516 C78.3336767,93.1469979 79.6050043,94.3325052 80.9610871,96.1954451 C84.5208045,101.27619 85.9616425,102.038302 88.5042977,100.175362 C90.3689116,98.8204969 90.5384219,98.2277433 90.1146461,95.2639752 C89.8603805,93.4010352 89.1823391,91.3687371 88.6738081,90.7759834 C87.4024805,89.1670807 79.5202492,85.610559 73.5026317,83.9169772 C67.2307487,82.1387164 53.3309,81.6306418 48.499855,82.9008282 C44.9401376,83.8322981 41.5499306,86.9654244 39.6853167,90.9453416 C38.7530098,92.8082816 37.396927,93.8244306 33.8372096,95.0099379 C31.2945544,95.8567288 28.0738577,97.042236 26.6330197,97.7196687 C25.2769369,98.3971014 23.2428127,99.1592133 22.2257506,99.4979296 C20.0221161,100.090683 19.8526057,101.022153 21.2086885,104.917391 C21.8867299,106.780331 22.5647713,107.457764 23.4123231,107.203727 C28.8366543,105.086749 32.3116165,106.526294 44.8553824,115.925673 C56.3820863,124.56294 61.7216623,127.018634 68.5020764,126.764596 L73.8416524,126.595238 L77.4013698,119.90559 Z M386.92727,109.490062 C387.605312,108.643271 389.469925,105.93354 391.165029,103.477847 C393.96195,99.3285714 394.13146,98.6511387 393.622929,95.0099379 C393.283908,92.8082816 392.182091,88.7436853 391.080274,85.8645963 C389.978456,82.9855072 388.876639,78.4975155 388.537618,75.8724638 L387.944332,71.1304348 L384.130349,71.1304348 C381.163918,71.1304348 379.38406,71.8078675 375.400566,74.5175983 C365.907987,80.9532091 365.823232,81.1225673 366.247007,88.8283644 C366.586028,94.0784679 367.094559,96.2801242 368.959173,99.4979296 C372.095114,104.748033 379.045039,109.574741 385.486432,110.844928 C385.655943,110.929607 386.333984,110.252174 386.92727,109.490062 Z M254.370176,96.7035197 C257.082342,95.0099379 259.370731,93.231677 259.540242,92.7236025 C259.709752,92.300207 259.116466,88.6590062 258.184159,84.7637681 L256.57381,77.5660455 L250.895214,83.4935818 C244.030045,90.6913043 238.097182,98.905176 238.097182,101.191511 C238.097182,102.122981 238.520958,104.324638 239.029489,106.102899 L239.877041,109.405383 L244.708086,104.663354 C247.335496,102.038302 251.742765,98.3971014 254.370176,96.7035197 Z M303.358667,105.848861 C303.951953,104.493996 304.88426,102.885093 305.562302,102.377019 C308.189712,100.260041 306.579364,97.8890269 292.933781,84.0016563 L286.831408,77.9047619 L286.238122,81.4612836 C285.983856,83.4935818 285.305815,86.0339545 284.882039,87.3041408 C283.271691,91.284058 284.543018,93.7397516 290.221615,97.8043478 C293.188046,99.836646 296.747764,103.13913 298.273357,105.00207 C299.714195,106.86501 301.239788,108.389234 301.663564,108.389234 C302.002584,108.389234 302.765381,107.288406 303.358667,105.848861 Z M112.659523,104.15528 C112.659523,103.731884 113.846095,100.768116 115.286933,97.6349896 C118.50763,90.6913043 121.13504,80.5298137 121.13504,75.1950311 L121.13504,71.1304348 L111.727216,71.1304348 C103.251698,71.1304348 102.404146,71.299793 102.827922,72.6546584 C102.997433,73.4167702 103.421209,76.2111801 103.760229,78.7515528 C104.014495,81.2919255 104.777291,85.1024845 105.455333,87.2194617 C106.048619,89.3364389 107.574212,94.4171843 108.84554,98.4817805 C110.032112,102.546377 111.388195,105.679503 111.811971,105.425466 C112.320502,105.086749 112.659523,104.578675 112.659523,104.15528 Z M226.231458,90.6913043 C226.231458,90.2679089 228.604603,86.7113872 231.401523,82.8161491 C236.995365,75.3643892 248.013538,64.1867495 251.912276,62.1544513 C253.183603,61.4770186 254.200666,60.6302277 254.200666,60.2915114 C254.200666,59.952795 253.268359,55.2954451 252.166541,49.9606625 C251.064724,44.6258799 249.708641,36.5813665 249.20011,32.1780538 C247.589762,19.4761905 247.505007,18.8834369 245.640393,16.5971014 L243.945289,14.3954451 L200.72015,14.3954451 L157.579766,14.3954451 L157.579766,20.5770186 C157.579766,38.6983437 162.665076,48.9445135 177.921008,61.5616977 C187.498343,69.5215321 199.618333,77.6507246 213.094406,85.2718427 C223.858313,91.284058 226.231458,92.300207 226.231458,90.6913043 Z M327.429137,87.2194617 C331.07361,85.3565217 334.633327,83.8322981 335.226613,83.8322981 C335.819899,83.8322981 336.413186,83.5782609 336.582696,83.2395445 C336.921717,82.3927536 342.854579,77.9047619 343.617376,77.9047619 C344.210662,77.9047619 354.042262,71.7231884 355.65261,70.2836439 C356.245897,69.8602484 357.093448,69.436853 357.517224,69.436853 C357.941,69.436853 358.873307,68.9287785 359.466593,68.4207039 C360.05988,67.8279503 362.348269,65.9650104 364.382394,64.3561077 C371.162808,59.1060041 377.858466,52.2469979 380.909653,47.3356108 C384.63888,41.2387164 386.164474,35.1418219 386.75776,23.1173913 L387.266291,13.5486542 L343.702131,13.5486542 L300.053215,13.5486542 L298.358112,16.0043478 C297.256295,17.6132505 296.154477,21.4238095 295.306926,26.7585921 C294.544129,31.415942 293.357557,37.089441 292.76427,39.3757764 C292.086229,41.7467909 291.153922,46.4888199 290.645391,49.9606625 C290.13686,53.4325052 289.543574,57.3277433 289.289308,58.5979296 C288.950287,60.4608696 289.289308,61.0536232 291.408188,62.2391304 C294.628884,63.8480331 308.104957,77.1426501 314.37684,84.8484472 C316.919495,87.9815735 319.462151,90.5219462 319.885926,90.5219462 C320.394458,90.6066253 323.784665,89.0824017 327.429137,87.2194617 Z M277.423584,42.76294 C278.779666,36.7507246 280.729035,28.3674948 281.830853,24.1335404 C282.93267,19.984265 283.864977,16.0043478 283.864977,15.4962733 C283.864977,14.6494824 280.983301,14.3954451 272.423028,14.3954451 L260.98108,14.3954451 L260.98108,17.1898551 C260.98108,18.7987578 261.743876,23.6254658 262.676183,28.0287785 C263.693245,32.4320911 265.049328,38.8677019 265.727369,42.3395445 C266.405411,45.8113872 267.676738,51.7389234 268.609045,55.4648033 C269.456597,59.1906832 270.473659,63.763354 270.81268,65.626294 C271.321211,68.9287785 271.405966,68.8440994 273.27058,61.3923395 C274.287642,57.2430642 276.152256,48.8598344 277.423584,42.76294 Z" id="Shape"></path>
            </g>
        </g>
    </g>
</svg>