<?xml version="1.0" encoding="UTF-8"?>
<svg width="524px" height="203px" viewBox="0 0 524 203" version="1.1" xmlns="http://www.w3.org/2000/svg" xmlns:xlink="http://www.w3.org/1999/xlink">
    <title>detroit-skyline</title>
    <g id="detroit-skyline" stroke="none" stroke-width="1" fill="none" fill-rule="evenodd">
        <polyline id="Path-8" stroke="#FFFFFF" points="0 191.43888 11.2680831 191.43888 13.3021722 198.113758 24.1471154 198.113758 30.4313618 191.43888 37.3573945 191.43888 37.3573945 182.93888 44.3564681 182.93888 44.3564681 178.893205 56.8107825 180.826182 56.8107825 182.93888 61.5438897 198.113758 65.7934122 198.113758 65.7934122 176.5055 68.2460555 176.5055 68.2460555 170.222754 72.4824311 170.222754 72.4824311 159.213284 74.7780733 159.213284 74.7780733 155.265171 82.8204968 150.257803 86.9398545 150.257803 95.0568195 155.265171 96.5763163 159.213284 99.3750083 160.149285 99.3750083 176.5055 100.282727 177.127711 100.282727 186.146071 102.526557 186.146071 102.526557 184.848691 111.121175 184.848691 111.121175 170.751961 113.296861 169.000732 114.320878 170.751961 115.938338 170.751961 117.732615 167.801939 123.340237 166.970524 123.340237 157.910737 130.467675 157.910737 130.467675 148.668273 131.820347 149.148395 138.650939 149.653829 138.650939 147.195467 141.33336 147.195467 141.33336 143.822484 142.961281 143.822484 144.714908 134.541965 147.086281 143.822484 148.80935 144.387012 148.80935 147.195467 152.045595 147.705433 153.632207 148.668273 155.684648 148.668273 155.684648 136.485058 156.465957 148.668273 159.094786 148.668273 160.193085 152.172153 162.143596 154.294322 162.143596 179.586663 167.447005 180.826182 170.693628 180.826182 171.456172 175.867 172.021433 172.535239 177.711019 171.901931 181.15682 175.317434 181.15682 169.000732 186.275401 169.000732 186.275401 144.387012 189.018252 126.574581 190.211421 129.439957 194.630564 129.439957 196.034231 124.584989 197.791067 128.126488 200.144507 129.439957 208.907487 129.439957 210.411321 125.608976 214.194338 145.335599 214.194338 172.535239 216.262061 173.347961 216.707477 171.901931 223.472483 171.901931 224.380317 170.222754 228.053818 170.222754 235.288719 170.751961 236.375634 171.901931 236.375634 173.347961 239.780717 173.347961 239.780717 184.848691 244.773638 184.848691 244.773638 182.93888 249.796242 182.93888 250.927245 184.248206 250.927245 184.848691 252.127072 184.848691 252.829744 187.858486 260.018695 187.858486 260.018695 161.349374 260.805464 161.349374 260.805464 160.149285 267.397337 160.149285 268.596277 141.817396 268.596277 160.149285 271.103162 160.78384 271.103162 159.213284 274.238794 159.213284 274.990639 160.78384 275.468836 160.78384 275.468836 108.446317 284.82134 105.83354 284.82134 100.741624 293.016246 101.524181 293.016246 106.242532 308.37865 107.5839 309.866265 109.467317 309.866265 117.292974 316.712663 117.292974 316.712663 68.2139363 325.355385 65.1320563 325.355385 62 329.378887 62 330.616283 65.1320563 343.499267 69.1158748 343.499267 106.242532 353.963419 103.392039 353.963419 98.6170838 362.271182 98.6170838 362.271182 103.392039 376.579941 104.945966 376.579941 115.56731 379.673171 116.004928 379.673171 193.045032 386.044691 194.717521 393.981806 198.113758 397.393504 200.385426 401.469937 200.385426 401.469937 203.40352 404.199087 203.40352 404.199087 200.385426 409.156828 200.385426 409.156828 159.213284 419.740263 157.910737 419.740263 152.172153 430.007632 152.172153 431.408908 157.910737 440.328252 157.910737 440.328252 198.113758 449.819548 198.113758 449.819548 157.910737 459.953641 155.265171 459.953641 150.257803 471.301354 150.257803 471.301354 155.265171 483.017163 156.813035 483.017163 198.113758 484.026017 198.113758 485.997985 175.317434 488.637863 173.347961 494.7319 173.347961 496.475989 170.751961 497.99462 170.222754 507.346026 169.000732 518.467545 169.000732 518.467545 196.640506 524.47192 196.640506"></polyline>
    </g>
</svg>