<?xml version="1.0" encoding="UTF-8"?>
<svg width="524px" height="203px" viewBox="0 0 524 203" version="1.1" xmlns="http://www.w3.org/2000/svg" xmlns:xlink="http://www.w3.org/1999/xlink">
    <title>detroit-skyline</title>
    <defs>
        <linearGradient x1="61.2419787%" y1="67.8110135%" x2="61.2419787%" y2="177.236098%" id="linearGradient-1">
            <stop stop-color="#1C0028" offset="0%"></stop>
            <stop stop-color="#00FE12" offset="100%"></stop>
        </linearGradient>
    </defs>
    <g id="detroit-skyline" stroke="none" stroke-width="1" fill="none" fill-rule="evenodd">
        <polyline id="Path-8" stroke="#00BE0E" fill="url(#linearGradient-1)" points="0.422717523 203 11.6908006 203 30.8540794 203 37.3573945 197.43888 37.3573945 188.93888 44.3564681 188.93888 44.3564681 184.893205 56.8107825 186.826182 56.8107825 188.93888 61.5438897 197.43888 65.7934122 197.43888 65.7934122 182.5055 68.2460555 182.5055 68.2460555 176.222754 72.4824311 176.222754 72.4824311 165.213284 74.7780733 165.213284 74.7780733 161.265171 82.8204968 156.257803 86.9398545 156.257803 95.0568195 161.265171 96.5763163 165.213284 99.3750083 166.149285 99.3750083 182.5055 100.282727 183.127711 100.282727 192.146071 102.526557 192.146071 102.526557 190.848691 111.121175 190.848691 111.121175 176.751961 113.296861 175.000732 114.320878 176.751961 115.938338 176.751961 117.732615 173.801939 123.340237 172.970524 123.340237 163.910737 130.467675 163.910737 130.467675 154.668273 131.820347 155.148395 138.650939 155.653829 138.650939 153.195467 141.33336 153.195467 141.33336 149.822484 142.961281 149.822484 144.714908 140.541965 147.086281 149.822484 148.80935 150.387012 148.80935 153.195467 152.045595 153.705433 153.632207 154.668273 155.684648 154.668273 155.684648 142.485058 156.465957 154.668273 159.094786 154.668273 160.193085 158.172153 162.143596 160.294322 162.143596 185.586663 167.447005 186.826182 170.693628 186.826182 171.456172 181.867 172.021433 178.535239 177.711019 177.901931 181.15682 181.317434 181.15682 175.000732 186.275401 175.000732 186.275401 150.387012 189.018252 132.574581 190.211421 135.439957 194.630564 135.439957 196.034231 130.584989 197.791067 134.126488 200.144507 135.439957 208.907487 135.439957 210.411321 131.608976 214.194338 151.335599 214.194338 178.535239 216.262061 179.347961 216.707477 177.901931 223.472483 177.901931 224.380317 176.222754 228.053818 176.222754 235.288719 176.751961 236.375634 177.901931 236.375634 179.347961 239.780717 179.347961 239.780717 190.848691 244.773638 190.848691 244.773638 188.93888 249.796242 188.93888 250.927245 190.248206 250.927245 190.848691 252.127072 190.848691 252.829744 193.858486 260.018695 193.858486 260.018695 167.349374 260.805464 167.349374 260.805464 166.149285 267.397337 166.149285 268.596277 147.817396 268.596277 166.149285 271.103162 166.78384 271.103162 165.213284 274.238794 165.213284 274.990639 166.78384 275.468836 166.78384 275.468836 114.446317 284.82134 111.83354 284.82134 106.741624 293.016246 107.524181 293.016246 112.242532 308.37865 113.5839 309.866265 115.467317 309.866265 123.292974 316.712663 123.292974 316.712663 74.2139363 325.355385 71.1320563 325.355385 68 329.378887 68 330.616283 71.1320563 343.499267 75.1158748 343.499267 112.242532 353.963419 109.392039 353.963419 104.617084 362.271182 104.617084 362.271182 109.392039 376.579941 110.945966 376.579941 121.56731 379.673171 122.004928 379.673171 199.045032 386.044691 200.717521 409.156828 200.717521 409.156828 165.213284 419.740263 163.910737 419.740263 158.172153 430.007632 158.172153 431.408908 163.910737 440.328252 163.910737 440.328252 200.717521 449.819548 200.717521 449.819548 163.910737 459.953641 161.265171 459.953641 156.257803 471.301354 156.257803 471.301354 161.265171 483.017163 162.813035 483.017163 202.640506 484.026017 202.640506 485.997985 181.317434 488.637863 179.347961 494.7319 179.347961 496.475989 176.751961 497.99462 176.222754 507.346026 175.000732 518.467545 175.000732 518.467545 202.640506 524.47192 202.640506"></polyline>
    </g>
</svg>