<?xml version="1.0" encoding="UTF-8"?>
<svg width="600px" height="600px" viewBox="0 0 600 600" version="1.1" xmlns="http://www.w3.org/2000/svg" xmlns:xlink="http://www.w3.org/1999/xlink">
    <title>F_Logo600x600</title>
    <defs>
        <linearGradient x1="59.6485267%" y1="11.168349%" x2="-21.6924289%" y2="57.9159647%" id="linearGradient-1">
            <stop stop-color="#211E1E" offset="0%"></stop>
            <stop stop-color="#6900FF" offset="42.0519529%"></stop>
            <stop stop-color="#292929" offset="100%"></stop>
        </linearGradient>
        <linearGradient x1="130.202628%" y1="43.3791076%" x2="-53.7554567%" y2="57.3435576%" id="linearGradient-2">
            <stop stop-color="#000100" offset="0%"></stop>
            <stop stop-color="#00FF13" offset="42.7556013%"></stop>
            <stop stop-color="#000901" offset="100%"></stop>
        </linearGradient>
        <linearGradient x1="103.741659%" y1="36.3862194%" x2="14.9545579%" y2="52.936969%" id="linearGradient-3">
            <stop stop-color="#060303" offset="0%"></stop>
            <stop stop-color="#FF0000" offset="100%"></stop>
        </linearGradient>
        <linearGradient x1="77.7965531%" y1="-30.0560286%" x2="14.0405291%" y2="138.79408%" id="linearGradient-4">
            <stop stop-color="#000100" offset="0%"></stop>
            <stop stop-color="#00FF13" offset="42.7556013%"></stop>
            <stop stop-color="#000901" offset="100%"></stop>
        </linearGradient>
        <linearGradient x1="12.8540396%" y1="138.79408%" x2="71.3378768%" y2="-11.1459799%" id="linearGradient-5">
            <stop stop-color="#000901" offset="0%"></stop>
            <stop stop-color="#6800FE" offset="100%"></stop>
        </linearGradient>
        <linearGradient x1="-53.1567223%" y1="136.165637%" x2="109.256657%" y2="-9.33596388%" id="linearGradient-6">
            <stop stop-color="#000901" offset="0%"></stop>
            <stop stop-color="#6800FE" offset="100%"></stop>
        </linearGradient>
        <linearGradient x1="110.923243%" y1="-30.0560286%" x2="-28.814362%" y2="138.79408%" id="linearGradient-7">
            <stop stop-color="#000100" offset="0%"></stop>
            <stop stop-color="#00FF13" offset="42.7556013%"></stop>
            <stop stop-color="#000901" offset="100%"></stop>
        </linearGradient>
    </defs>
    <g id="F_Logo600x600" stroke="none" stroke-width="1" fill="none" fill-rule="evenodd">
        <g id="Group" transform="translate(157.000000, 77.000000)" fill-rule="nonzero">
            <path d="M16.8057095,416.711267 L16.8057095,127.921089 C16.8057095,101.843512 12.0475672,75.9846322 2.76489125,51.6140335 L0,44.3551293 L0,44.3551293 L41.4194171,21 L264,21 L213.805546,92.4317915 C209.789319,98.1472898 203.24019,101.549172 196.253235,101.549172 L108.93162,101.549172 C98.3316673,101.549172 89.7143406,110.093163 89.6270794,120.689427 L89.4414172,143.234633 C89.3829025,150.340135 95.0974253,156.147704 102.205161,156.2062 C102.240477,156.206491 102.275794,156.206636 102.311111,156.206636 L175.268595,156.206636 L175.268595,156.206636 L134.851929,219.532878 L110.018974,219.532878 C99.4217454,219.532878 90.8055667,228.07264 90.7144921,238.666146 L89.7847013,346.816247 L89.7847013,346.816247 L24.2846912,419.580059 C22.6998029,421.340708 19.9872609,421.483595 18.2260589,419.899205 C17.3219704,419.085879 16.8057095,417.927145 16.8057095,416.711267 Z" id="Path" fill="url(#linearGradient-1)"></path>
            <path d="M158.303225,5.54520599 C194.834593,5.81219167 222.233119,6.01243093 240.498803,6.14592377 C246.370236,6.18883452 255.177385,6.25320065 266.92025,6.33902215 L286,0 L249.576153,41.6956876 L133,44 L156.470311,6.5500146 C156.865061,5.92013861 157.558914,5.53976628 158.303225,5.54520599 Z" id="Path-12-Copy" fill="url(#linearGradient-2)"></path>
            <path d="M119.563872,5 L144.13341,5 C145.317484,5 146.277366,5.9712788 146.277366,7.16941191 C146.277366,7.6381403 146.127335,8.09426145 145.849732,8.46949706 L119.563872,44 L119.563872,44 L204,44 L89,44" id="Path-12-Copy-2" fill="url(#linearGradient-3)"></path>
            <polyline id="Path-12-Copy-4" fill="url(#linearGradient-4)" points="89 323 89 346.91206 16 447 16 445.489534 16 442.894637 16 418.161201"></polyline>
            <path d="M89,300 L89,323.902943 C40.9211321,387.156435 16.5877988,418.519947 16,417.993482 L16,413.663825 L16,394.216224" id="Path-12-Copy-8" fill="url(#linearGradient-5)"></path>
            <path d="M162.934529,156 L185.8391,156 C187.032532,156 188,156.970272 188,158.167162 C188,158.580195 187.88231,158.984627 187.660793,159.332823 L149.06523,220 L149.06523,220 L125,220" id="Path-12-Copy-6" fill="url(#linearGradient-6)"></path>
            <path d="M179.907776,156 L193.840623,156 C195.033214,156 196,156.970272 196,158.167162 C196,158.580195 195.882393,158.984627 195.661032,159.332823 L157.092688,220 L157.092688,220 L142,220" id="Path-12-Copy-7" fill="url(#linearGradient-7)"></path>
            <path d="M83.5638722,5 L108.13341,5 C109.317484,5 110.277366,5.9712788 110.277366,7.16941191 C110.277366,7.6381403 110.127335,8.09426145 109.849732,8.46949706 L83.5638722,44 L83.5638722,44 L168,44 L53,44" id="Path-12-Copy-3" fill="url(#linearGradient-3)"></path>
            <path d="M46.5638722,5 L71.1334103,5 C72.3174843,5 73.2773662,5.9712788 73.2773662,7.16941191 C73.2773662,7.6381403 73.1273351,8.09426145 72.8497317,8.46949706 L46.5638722,44 L46.5638722,44 L131,44 L16,44" id="Path-12-Copy-5" fill="url(#linearGradient-3)"></path>
        </g>
    </g>
</svg>